<?xml version="1.0" encoding="utf-8"?>
<!-- Generator: Adobe Illustrator 27.9.6, SVG Export Plug-In . SVG Version: 9.03 Build 54986)  -->
<svg version="1.1" id="Capa_1" xmlns="http://www.w3.org/2000/svg" xmlns:xlink="http://www.w3.org/1999/xlink" x="0px" y="0px"
	 viewBox="0 0 115.5 142" style="enable-background:new 0 0 115.5 142;" xml:space="preserve">
<style type="text/css">
	.st0{fill:#FFFFFF;}
	.st1{fill:url(#SVGID_1_);stroke:url(#SVGID_00000162345661355563921990000003563777605477148580_);stroke-width:1.2;}
	
		.st2{fill:url(#SVGID_00000083090138056311992820000014380420705322411141_);stroke:url(#SVGID_00000025426167633252387050000004237859692549569974_);stroke-width:1.2;}
</style>
<g>
	<path class="st0" d="M55.6,2.8c29.5,0,52.7,20.1,56.6,46.9c2,13.6-1.5,26.3-7.7,38.2c-8.2,15.8-19.8,28.9-32.9,40.9
		c-3.6,3.3-7.5,6.4-11.4,9.6c-1.5,1.3-2.7,1.3-4.2,0.1c-16.7-13.3-31.5-28.2-42.4-46.9C9,83.7,5.7,75.4,4,66.2
		c-4.1-23.7,9-48.5,31.1-58.4C42.4,4.5,50,2.8,55.6,2.8z"/>
</g>
<g>
	
		<linearGradient id="SVGID_1_" gradientUnits="userSpaceOnUse" x1="-222.944" y1="494.8991" x2="-221.944" y2="493.8991" gradientTransform="matrix(111.629 0 0 -139.2879 24893.5566 68929.4141)">
		<stop  offset="0" style="stop-color:#F1010C"/>
		<stop  offset="0.4" style="stop-color:#C34184"/>
		<stop  offset="0.8" style="stop-color:#FE9221"/>
	</linearGradient>
	
		<linearGradient id="SVGID_00000005988774933869744550000001910737851248141980_" gradientUnits="userSpaceOnUse" x1="-222.944" y1="494.8991" x2="-221.944" y2="493.8991" gradientTransform="matrix(111.629 0 0 -139.2879 24893.5566 68929.4141)">
		<stop  offset="0" style="stop-color:#F1010C"/>
		<stop  offset="0.4" style="stop-color:#C34184"/>
		<stop  offset="0.8" style="stop-color:#FE9221"/>
	</linearGradient>
	<path style="fill:url(#SVGID_1_);stroke:url(#SVGID_00000005988774933869744550000001910737851248141980_);stroke-width:1.2;" d="
		M55.3,1.7c30.1,0,53.8,20.5,57.7,47.8c2,13.9-1.5,26.8-7.9,39c-8.4,16.1-20.2,29.5-33.6,41.7c-3.7,3.4-7.7,6.5-11.6,9.8
		c-1.5,1.3-2.8,1.3-4.3,0.1c-17-13.6-32.1-28.8-43.2-47.8c-4.6-8.1-8-16.6-9.7-25.9c-4.2-24.2,9.2-49.5,31.7-59.6
		C41.8,3.4,49.6,1.7,55.3,1.7z M57.9,136c4.9-4.5,9.8-8.7,14.5-13.1c11.5-11.1,21.7-23.2,29-37.6c6.8-13.5,9.6-27.5,5.3-42.4
		C97.4,10.8,59.2-3.8,30.9,14C9.6,27.3,1.4,52.6,10.3,76.7C14.5,88,21,97.9,28.5,107.1C37.2,117.7,46.9,127.1,57.9,136z"/>
</g>
<g>
	
		<linearGradient id="SVGID_00000121988729649334523940000011663972290555060631_" gradientUnits="userSpaceOnUse" x1="18.3023" y1="57.4115" x2="97.3023" y2="57.4115">
		<stop  offset="0" style="stop-color:#F1010C"/>
		<stop  offset="0.4" style="stop-color:#C34184"/>
		<stop  offset="0.8" style="stop-color:#FE9221"/>
	</linearGradient>
	
		<linearGradient id="SVGID_00000129194195060901329830000000036377419509145736_" gradientUnits="userSpaceOnUse" x1="17.7023" y1="57.4115" x2="97.9023" y2="57.4115">
		<stop  offset="0" style="stop-color:#F1010C"/>
		<stop  offset="0.4" style="stop-color:#C34184"/>
		<stop  offset="0.8" style="stop-color:#FE9221"/>
	</linearGradient>
	
		<circle style="fill:url(#SVGID_00000121988729649334523940000011663972290555060631_);stroke:url(#SVGID_00000129194195060901329830000000036377419509145736_);stroke-width:1.2;" cx="57.8" cy="57.4" r="39.5"/>
</g>
<g>
	<path class="st0" d="M81,66.8c-15.6,0-30.9,0-46.5,0c0,1.4,0,2.8,0,4.2c0,1.6-0.7,2.7-2.3,2.7c-1.7,0-2.3-1.1-2.3-2.7
		c0-10.6,0-21.1,0-31.7c0-1.5,0.6-2.7,2.2-2.7c1.8,0,2.4,1.1,2.4,2.8c0,1.3,0,2.5,0,4.1c1.9,0,3.8,0,5.6,0c5.7,0,8.2,2.4,8.3,8.2
		c0,0.3,0,0.6,0.1,1.1c0.8,0,1.5,0,2.3,0c9,0,18,0,27,0c5.1,0,7.8,2.7,7.8,7.8c0,3.4,0,6.8,0,10.1c0,1.6-0.5,2.9-2.3,2.9
		s-2.4-1.2-2.4-2.8C81,69.5,81,68.3,81,66.8z M34.6,61.9c15.6,0,30.9,0,46.3,0c0.3-3.9-0.3-4.5-3.9-4.5c-13.3,0-26.7,0-40,0
		c-0.7,0-1.5,0-2.3,0C34.6,59,34.6,60.4,34.6,61.9z M43.7,52.7c0.1-2,0.4-4.1-1.9-4.4c-2.4-0.3-4.8-0.1-7.2-0.1c0,1.6,0,3,0,4.5
		C37.7,52.7,40.6,52.7,43.7,52.7z"/>
</g>
</svg>
