<?xml version="1.0" encoding="utf-8"?>
<!-- Generator: Adobe Illustrator 27.9.6, SVG Export Plug-In . SVG Version: 9.03 Build 54986)  -->
<svg version="1.1" id="Capa_1" xmlns="http://www.w3.org/2000/svg" xmlns:xlink="http://www.w3.org/1999/xlink" x="0px" y="0px"
	 viewBox="0 0 115.5 142" style="enable-background:new 0 0 115.5 142;" xml:space="preserve">
<defs>
  <!-- Degradado de marca usado en ChatWidget: #F1010C -> #C34184 -> #FE9221 -->
  <linearGradient id="brand" x1="0%" y1="0%" x2="100%" y2="100%">
    <stop offset="0%" stop-color="#F1010C"/>
    <stop offset="40%" stop-color="#C34184"/>
    <stop offset="80%" stop-color="#FE9221"/>
  </linearGradient>
  <!-- Sombra suave para destacar sobre el mapa -->
  <filter id="shadow" x="-20%" y="-20%" width="140%" height="140%">
    <feDropShadow dx="0" dy="1.5" stdDeviation="1.8" flood-color="#000000" flood-opacity="0.35"/>
  </filter>
</defs>
<style type="text/css">
	.pin{fill:url(#brand);stroke:url(#brand);stroke-width:1.2;} 
	.icon{fill:#FFFFFF;}
</style>
<g>
	<g>
		<g>
			<path class="pin" filter="url(#shadow)" d="M55.4,1.5c30.1,0,53.8,20.5,57.7,47.8c2,13.9-1.5,26.8-7.9,39c-8.4,16.1-20.2,29.5-33.6,41.7
				c-3.7,3.4-7.7,6.5-11.6,9.8c-1.5,1.3-2.8,1.3-4.3,0.1c-17-13.6-32.1-28.8-43.2-47.8C7.9,84,4.5,75.5,2.8,66.2
				C-1.4,42,12,16.7,34.5,6.6C41.9,3.2,49.7,1.5,55.4,1.5z M58,135.8c4.9-4.5,9.8-8.7,14.5-13.1c11.5-11.1,21.7-23.2,29-37.6
				c6.8-13.5,9.6-27.5,5.3-42.4C97.5,10.6,59.3-4,31,13.8C9.7,27.1,1.5,52.4,10.4,76.5c4.2,11.3,10.7,21.2,18.2,30.4
				C37.3,117.5,47,126.9,58,135.8z"/>
		</g>
			<g>
				<!-- Círculo interior completamente relleno con el degradado -->
				<circle class="pin" filter="url(#shadow)" cx="57.9" cy="57.2" r="39.5"/>
			</g>
		<g>
				<path class="icon" d="M81.1,66.6c-15.6,0-30.9,0-46.5,0c0,1.4,0,2.8,0,4.2c0,1.6-0.7,2.7-2.3,2.7c-1.7,0-2.3-1.1-2.3-2.7
				c0-10.6,0-21.1,0-31.7c0-1.5,0.6-2.7,2.2-2.7c1.8,0,2.4,1.1,2.4,2.8c0,1.3,0,2.5,0,4.1c1.9,0,3.8,0,5.6,0c5.7,0,8.2,2.4,8.3,8.2
				c0,0.3,0,0.6,0.1,1.1c0.8,0,1.5,0,2.3,0c9,0,18,0,27,0c5.1,0,7.8,2.7,7.8,7.8c0,3.4,0,6.8,0,10.1c0,1.6-0.5,2.9-2.3,2.9
				c-1.8,0-2.4-1.2-2.4-2.8C81.1,69.3,81.1,68.1,81.1,66.6z M34.7,61.7c15.6,0,30.9,0,46.3,0c0.3-3.9-0.3-4.5-3.9-4.5
				c-13.3,0-26.7,0-40,0c-0.7,0-1.5,0-2.3,0C34.7,58.8,34.7,60.2,34.7,61.7z M43.8,52.5c0.1-2,0.4-4.1-1.9-4.4
				c-2.4-0.3-4.8-0.1-7.2-0.1c0,1.6,0,3,0,4.5C37.8,52.5,40.7,52.5,43.8,52.5z"/>
		</g>
	</g>
</g>
</svg>
