<?xml version="1.0" encoding="UTF-8"?>
<svg id="svg2" xmlns="http://www.w3.org/2000/svg" viewBox="0 0 1749.27 2694.77">
  <defs>
    <style>
      .cls-1 {
        fill: #0a52a1;
        stroke: #fff;
        stroke-linecap: square;
        stroke-linejoin: bevel;
        stroke-width: 3.02px;
      }
    </style>
  </defs>
  <path id="path70" class="cls-1" d="m880.51,70.84l-1.57,1.15-1.32,2.17-10.83,60.42-.18,1.03-8.7.61-1,29.26-.07,1.95-2.72.48-2.74.18h-2.74l-2.76-.14-1.25.58-1.19.54-2.41,1.32-2.28,1.5-1.96,1.9-1.82,2.01-2.21,1.58-2.16,1.68-2.3,1.48-.02.07-.78,2.39-.41,2.65.05,2.69v2.69l.14,2.69.02,2.7.17,2.67-.89,2.55-1.67,2.14-1.2,2.41-.24,2.68.07,2.69.4,2.66.51,2.65-.21,2.7-1.09,2.4-.99,2.52-1.29,2.39-1.68,2.14-1.2,2.15.02,2.99-6.4,32.77-4.18,18.23-1.26.32-2.73.46-2.75.14h-2.76l-2.75.31-2.63.76-2.57,1.03-2.67.71-2.69.6-2.49,1.13-2.46,1.24-2.63.87-2.69.51-2.73-.47-2.56-1.02-2.49-1.18-3.09-.32-12.86-1.62-44.01-5.57.83-23.51-8.79-20.38-6.12-14.19-3.39-7.86-93.74-23.05,6.59-13.19-2.18-32.73-30.46-5.43,1.28-91.36.57-40.63,23.38-4.44,8.35-1.1,27.36-3.37,2.59-.32,25.97,3.59,7.11.98,7.13.98,28.52,4.04,8.04,1.13,27.63,3.7,29.73,3.96,5.96.73,2.53.31,12.23,1.5,3.9,10.64,2.55,5.08-.02,3.81-.07,15.35,20.39.14,10.14.07,11.57-22.73.37-.72,6.31-1.63,19.03,1.74,8.62,4.05,2.4,1.12.91,8.62-10.31,2.88,8.09,10.99,5.28,7.17,3.67,1.88"/>
  <path id="path72" class="cls-1" d="m571.16,10.73l-.57,40.63-1.28,91.36,30.46,5.43,2.18,32.73-6.59,13.19,93.74,23.05,3.39,7.86,6.12,14.19,8.79,20.38-.83,23.51,44.01,5.57,12.86,1.62,3.09.32,2.49,1.18,2.56,1.02,2.73.47,2.69-.51,2.63-.87,2.46-1.24,2.49-1.13,2.69-.6,2.67-.71,2.57-1.03,2.63-.76,2.75-.32h2.76l2.75-.13,2.73-.46,1.26-.32,1.42-.37,2.62-.85,2.53-1.15,2.66-.59,2.79.04,2.74.44,2.56.96,2.33,1.49,2.23,1.57,2.27,1.56,2.46,1.22,2.55,1.07,2.44,1.25,2.41,1.31,2.41,1.32,1.42.98.85.6,1.87,1.94,1.69,2.08,2.41,1.38,137.64,24.55.2.04,1.25,44.27,41.91.14.3,16.94,14.52-1.44,1.52-34.56,243.92,35.13,129.46,18.16,9.71-.22,10.5-.24,25.8-.02,20.26-.04-.89,116.63-2.69-.7-2.68-.68-2.69-.66-2.75-.34-2.77-.09-2.63-.8-2.66-.73-2.68-.74-2.75-.28-1.94.33-.87.14-1.59,2.03-.64,2.67-1.85,1.82-2.8-.22-2.75-.51-2.72-.52-2.76-.31-2.76-.15-2.76-.31-2.79-.19-2.75.2-2.75.37-2.79.02-2.72-.54-2.42-1.29-2.21-1.64-2.6-.96-2.72-.53-2.75-.41-2.53-1.16-1.9-1.9-1.72-2.1,2.65.3,2.81-.06-.26-2.54-2.13-1.7-1.65-2.16-.97-2.56-1.17-.13-1.28-.13-2.75.41-2.74.45-2.57.97-2.5,1.16-2.36,1.18-2.8-.35-2.69.28-2.76.31-2.76-.28-2.73-.27-2.57-.26-.08-2.65-2.01-1.36-2.7-.33-1.75-2.09-.97-2.54-2.15-1.37-1.78.38-.89.19-2.11,1.72-2.29,1.54-2.21,1.64-2.26,1.57-2.4,1.37-2.04,1.82-2.02,1.84-2.11,1.75-1.78,2.07-1.33,2.37-.32,2.67,1.25,2.27,2.47,1.32,2.69.65,2.73.51,2.01,1.61.85,2.6.18,2.69-.31,2.69-1.54,2.23-1.64,2.2-2.41,1.33-2.67.76-2.79.09-2.79-.07-2.77-.12-2.79.09-2.7.61-2.68.72-2.68.7-2.74.45-2.75.46-2.73.46-2.73-.33-2.75-.46-2.63.84-2.3,1.54-2.47,1.13-2.75.5-2.73.5-2.6.93-2.67.71-2.13,1.75-2.31,1.51-2.6.9-2.73.59-2.75.5-2.54.99-2.28,1.58-2.7.54-2.76.41-2.77.12-2.75.38-2.62.86-2.41,1.36.81,2.31,2.27,1.66.99,2.3,1.67,2.05,1.92,1.92-1.7,1.42-2.68-.72-2.56-1.15-2.54-.24h-.11l-2.72.73-2.79.39-2.22-.64,1-2.48-.64-2.23-.02-2.44-1.23-2.07-2.03,1.48-.58,2.5-2.33,1.58-1.85,2.11,1.54,2.1-.04,2.52-2.74.53-2.72.07-2.55,1.15-2.27-1.43-2.49-1.05-2.8-.17-2.59.94-2.66-.6-2.56-1-2.66-.8-2.77-.24-2.72.52-2.09,1.77,1.89,1.82-2.59.72-2.77.18-2.61.87-2.42,1.29-3.03,2.9-83.64-14.39,1.59-8.74-74.6-13.65,2.39-32.89-61.17-9.97-22.06-3.61-.84,5.22-5.57-.85-2.74-.48-2.74-.52-2.37,1.13-1.33,2.33-1.82-1.55-1.96-1.32-1.67,1.59-1.26,9.8-45-3.6-3.81-1.35-4.56-1.61-25.84,4.4-.46.08.58-19.67-.81-.06-14.25-1.03-1.56-36.25-26.8.37-32.74.43-.55,3.8-.13,2.69-.33,2.68-.48,2.66-.61,2.63-.48,2.65-.3,2.68-.13,2.72-.38,2.66-1.23,2.43-2.11,1.74-2.29,1.54-2.4,1.37-2.52,1.17-2.66.74-2.74.51-2.76.27-2.76-.08-2.76-.35-2.77-.25-2.76-.25-2.75-.37-2.7-.6-2.63-.84-2.61-.91-2.59-.99-2.57-1.02-2.57-.99-2.59-.99-2.57-1.05-2.6-.92-2.75-.24-2.77-.22-2.76-.13-2.7.55-2.68.73-2.75.28-2.79.07-2.77-.07-2.77-.08-2.76.09-2.79-.02-2.75-.43-2.17-1.63-2.49-1.16-46.59.14h-.15l-.44-6.54-2.8-41.71-30.24-.9-6.33-5.68.55-27.41.06-2.88,5.27-.35,3.42-41.56,30.19,5.7v-.02l4.7-48.85-9.07-2.59,1.35-12.22-301.83-39.84-.19-11.91,14-12.25,4.46-3.88,25.92-22.54-.26-1.41-6.44-34.77-.53-2.85-5.41-32.02-5.88-34.87-2.62-15.55-3.29-19.32-2.82-16.45,8.01-1.56,10.67-2.07,33.3-6.48,2.07-.2,7.91-.78,27.93-2.76,11.75-1.17,23.91-3.7,10.78-1.68,24.88-3.29,9-1.19,9.86-1.12,16.9-1.91,7.63-.86,12.12-2.3"/>
  <g id="g78">
    <path id="path80" class="cls-1" d="m1096.3,137.65l28.62,2.21,35.99,2.76,36,2.73,36.01,2.72,7.17.53,28.84,2.3,16.92,1.35,19.07,1.51,3.68.3-1.05.8-1,.89-1.22.43-1.32.22-1.15.66-1.2.57-1.12.68-.98.9-.93.93-.83,1.03-.6,1.16-.3,1.28-.08,1.31-.05,1.31v1.31l.51,1.19.47,1.2.21,1.29.7,1.12.72,1.11.68,1.12.35,1.24.08,1.31-.02,1.3-.08,1.3v1.3l.38,1.25.5,1.2.6,1.17.74,1.07,1.09.76,1.26.43,1.29.38,1.19.58.55,1.17.17,1.32.14,1.23.93.94.96.93.87.98.86,1,.78,1.06.71,1.1.77,1.07.66,1.12.38,1.25.64,1.17.34,1.22-.17,1.31.02,1.3.04,1.3-.02,1.3.11,1.3.08,1.3.12,1.3.4,1.24.57,1.2,1,.78,1.31.2,1.23.53,1.11.73,1.18.58,1.26.44,1.3.24,1.28.39,1.23.51,1.18.58.87.99,1.03.73,1.32.32,1.26.38.59,1.17.57,1.18.58,1.17.58,1.17.58,1.18.57,1.18.72,1.11,1.02.84,1.2.57,1.28.28.57.17.77.21.99.68.05,1.32.13,1.31.74,1.06,1,.91,1.2.53.41,1.25.45,1.2,1.11.74.52,1.09.27,2.24.96,1.94.58,1.16.57,1.15.6,1.13.63,1.12.7,1.09.72,1.06.76,1.05.74,1.1.74,1.09.8,1.02.89.87,1.23.39,1.36.17.98.73.76,1.05.46.64.6.84.54.59,1.09.72,1.09.72.92.94.96.86,1.29.32,1.42.08,1.03.46.21,1.33.3,1.25,1.1.43,1.41.14,1.29.35,1.12.67,1.04.78,1.02.81,1.15.66,1.26.21,1.22-.57,1.2-.44,1.22.41,1.24.5,1.29.24,1.29-.32,1.25.24,1.23.13,1.23-.52h.41l.9-.04,1.29.25,1.03.85h1.25l1.32-.15.38.02,1.02.06.72.81.27,1.32.43,1.2.48,1.2.94.9.27,1.02-.43,1.28.66,1.03.99.93,1.04.83-.02,1.22-.17,1.3.07,1.29-.35,1.25.38,1.03.76,1.05.26,1.29.94.89.12,1.04-.59,1.23-.6,1.13-1.26.32-.72,1.07-.11.37-.24.78-.5,1.2-.64,1.12-.61,1.12-.6,1.13-.53,1.17-.39,1.23-.13,1.26-.06,1.29-.44,1.19-.63,1.13-.52,1.19-.61,1.09-1.1.71-1.22.51-2.09.4.84.98,1,1.12.64,1.16.33,1.22-.64,1.11-1.42-.07-.57.93-.21,1.33-.33,1.29-.8,1.03-.65,1.07.05,1.3.54,1.25-.9.87-.53.76,1.2.83.94.89,1.1.85,1.16.74.9-.45.67-1.3.7.76.65,1.24.43,1.19-.66,1.07-.92,1,.53.93.97.94-.76,1.09-.97.92-.17,1.22.24,1.33-.77.77-1.36.45-1.11.78-.53,1.12.85.98.65,1.06-.33,1.24-.26,1.28.38,1.32-.12,1.06-1.35.51-.72.79.55,1.2,1.04.89.91.91.68,1.16.26,1.19-.6,1.17-1.15.84-1.05.71.54.9,1.11.98.63,1.11v1.25l-.15,1.32.02,1.29.21,1.26.24,1.26.18,1.26.15,1.28.07,1.33.43,1.15,1,.85,1.78.55.86.04,1.26.14.51.96.04,1.43.22,1.28.32,1.25.6,1.11.85,1,.98.85,1.23.47,1.1.7,1.04.78,1.03.79,1.06.77,1.06.77.96.85.73,1.06.66,1.11.65,1.11.68,1.13.93.84,1.26.41,1.25.44.92.85.7,1.12.61,1.13.53,1.17.53,1.18-129.46-18.16-243.92-35.13-1.52,34.56-14.52,1.44-.3-16.94-41.91-.14-1.25-44.27-.2-.04-137.64-24.55-2.41-1.38-1.69-2.08-1.87-1.94-.85-.6-1.42-.98-2.41-1.32-2.41-1.31-2.44-1.25-2.55-1.07-2.46-1.22-2.27-1.56-2.23-1.57-2.33-1.49-2.56-.96-2.74-.44-2.79-.04-2.66.59-2.53,1.15-2.62.85-1.42.37,4.18-18.23,6.4-32.77-.02-2.99,1.2-2.15,1.68-2.14,1.29-2.39.99-2.52,1.09-2.4.21-2.7-.51-2.65-.4-2.66-.07-2.69.24-2.68,1.2-2.41,1.67-2.14.89-2.55-.17-2.67-.02-2.7-.15-2.69v-2.69l-.04-2.69.41-2.65.78-2.39.02-.07,2.3-1.48,2.16-1.68,2.21-1.58,1.82-2.01,1.96-1.9,2.28-1.5,2.41-1.32,1.19-.54,1.25-.58,2.76.13h2.74l2.74-.17,2.72-.48.07-1.95,1-29.26,8.7-.61.18-1.03,10.83-60.42,1.32-2.17,1.57-1.15,4.86,2.43,13.32,6.65,2.47-.46,35.45-6.53,4.52-.84,27.15,4.98,3.8.5,1.64.21,11.3,1.49,7.46,3.11,14.74-2.15,2.18-.32-6.19,29.07,3.57.13,9.95.35.73,12.49-.54,13.06,35.96.26,13.63.04,22.41,1.75,7.38.58"/>
  </g>
  <path id="path98" class="cls-1" d="m337.51,249.68l3.12,201.97-20.59,1.96,1.83,2.31,1.58,2.21,1.51,2.27,1.48,2.29,1.57,2.22,1.65,2.16,1.71,2.11,1.59,2.2,1.41,2.33,1.49,2.28,1.56,2.23,1.56,2.22,1.37,2.35,1.39,2.33,1.56,2.23,1.5,2.28,1.45,2.3,1.32,2.36,1.29,2.39,1.3,2.39,1.33,2.36,1.35,2.35,1.38,2.34,1.48,2.29,1.52,2.26,1.69,2.14,1.69,2.14,1.46,2.3,1.36,2.35,1.66,2.15,1.65,2.15,1.56,2.23,1.51,2.26,1.46,2.29,1.2,2.42,1.09,2.47,1.44,2.3.73,2.61,1.18,2.42,1.39,2.35,1.44,2.3,1.89,1.96,2.08,1.79,2.14,1.71,1.89,1.96,1.69,2.15,1.75,2.1,72.23-.67.22,10.31.31,14.65h.27l28.15-.53-.02,1.87-.04,2.69-.41,2.67.18,2.68,1.71,2.14,1.79,2.08.94,2.53.26,2.68v.29l.04.06.04.06.04.06.04.06.04.06.02.06.04.06.04.06.04.06.04.05.04.06.04.06.04.05.04.06.04.06.04.06.04.05.04.06.04.06.04.06.02.06.04.06.04.06.04.06.04.06.04.06.02.06.04.06.04.06.04.06.02.06.04.06.02.06.04.06.02.06.04.06.02.06.02.06.04.06.02.06.02.06.04.06.02.06.02.06.02.06.02.06.02.06.02.06v.06l.02.06.02.06.02.06v.07l.02.06v.06l.02.07v.06l.02.07v.07l.02.06v.07l.02.07v.13l.02.07v.21s.01.07.01.07l.02.06v.14l.02.06v.14l.02.07v.07l.02.06v.13s.01.07.01.07l.04.06v.06l.02.07v.06l.04.07v.06l.02.06v.07l.04.06v.07l.02.06v.07l.04.06v.06l.02.06v.06l.02.06v.14s.01.13.01.13l.02.07v.86s-.01.35-.01.35v.2s-.01.47-.01.47v.07s.01.13.01.13l.02.07v.13s.01.06.01.06l.02.06v.06l.02.07v.13s.03.06.03.06v.07l.02.06v.07l.02.06v.07l.04.06v.07l.02.06v.07l.04.06v.06l.04.07v.06l.04.06v.07l.02.06.02.06.02.07v.06l.04.06v.06l.04.06v.06l.04.07v.06l.04.06.02.06v.06l.04.06.02.07v.06l.04.06v.06l.04.07.02.06.02.06v.06l.04.06.02.06.02.06v.06l.04.06.02.06.02.06.02.06v.06l.04.06.04.06v.06l.04.06.02.06.02.06.02.06.02.06.02.06.02.06v.06l.05.06v.06l.04.06.04.06v.06l.04.06.04.07v.06l.05.06v.06l.05.06v.06l.05.06.02.06v.06l.05.06.02.06.02.06.02.06.02.06.02.06.02.06.02.06.02.06.02.06.04.06.02.06.02.06.02.06.04.06.02.06.04.06.02.06.04.06.02.06.04.06.02.06.04.06.02.06.04.06.04.06.02.06.02.06.04.06.04.06.02.06.04.06.02.07.04.06.02.06.02.06.04.06.02.06.02.06.02.06.02.06.02.06.02.06.02.06.02.06.02.06v.06l.04.06v.06l.04.06.02.06v.06l.02.06v.06l.02.06v.12l.02.06v.45l-.02.06v.07l-.02.06v.07l-.04.06v.06l-.02.06-.02.07-.02.07v.06l-.04.07-.02.07-.02.07-.02.06v.06l-.04.07-.02.06-.02.07-.02.07-.02.06v.07l-.05.06v.07l-.04.06-.02.06v.07l-.04.06-.02.06v.06l-.04.06v.06l-.04.06-.02.06-.02.06v.06l-.04.06-.02.06-.02.06-.02.06-.02.06v.06l-.04.06-.02.06-.02.06-.02.06-.02.06-.02.06-.02.06-.02.06-.02.06-.02.06v.06l-.04.06-.02.06-.02.06-.02.06-.02.06-.02.06-.02.06-.02.06-.02.06-.02.06-.02.06-.02.07-.02.06-.02.06-.02.06v.06l-.05.06v.06l-.04.06-.02.06-.02.06-.02.06-.02.06-.02.06-.02.06-.02.06-.04.06-.02.06-.02.06-.02.06-.02.06-.02.06-.02.06-.04.06v.06l-.04.06-.04.06-.02.06-.02.06-.02.06-.04.06-.02.06-.02.06-.02.06-.02.06-.02.06-.04.06-.02.06-.02.06-.02.06-.04.06-.02.06-.02.06-.02.06-.02.06-.04.06-.02.06-.02.06-.02.06-.04.06-.02.06-.02.06-.02.06-.04.06-.02.06-.02.06-.02.06-.02.06-.02.06-.04.06-.02.06-.02.06-.04.06-.02.06-.02.06-.02.06-.05.11-.04.06-.04.06-.04.06-.04.06-.04.06-.04.06-.04.06-.04.06-.04.06-.04.06-.04.06-.04.06-.04.06-.04.06-.04.06-.04.06-.04.06-.04.06-.04.06-.04.06-.04.06-.04.05-.04.06-.02.06-.05.06-.04.06-.04.06-.04.05-.04.06-.04.06-.04.06-.04.06-.04.06-.04.05-.04.06-.05.05-.04.06-.04.06-.04.05-.04.05-.05.06-.04.05-.05.06-.04.05-.04.06-.05.05-.04.05-.05.05-.04.05-.05.05-.04.05-.05.05-.05.05-.05.05-.05.05-.05.05-.05.05-.05.05-.06.05-.05.05-.05.05-.05.05-.05.05-.06.04-.05.05-.06.04-.05.04-.06.05-.05.04-.06.05-.05.04-.06.04-.05.05-.06.04-.05.04-.05.05-.06.04-.05.05-.06.05-.05.04-.06.05-.05.05-.06.05-.05.05-.05.05-.06.05-.05.05-.05.05-.05.05-.05.05-.06.05-.04.05-.06.05-.05.05-.05.05-.05.05-.05.05-.06.05-.04.05-.06.05-.05.05-.05.04-.05.05-.05.05-.05.05-.05.05-.05.05-.06.05-.04.05-.06.05-.05.05-.05.05-.05.05-.05.05-.05.05-.06.05-.05.05-.05.05-.05.05-.05.05-.05.05-.05.05-.05.05-.05.05-.05.05-.05.05-.05.05-.05.05-.05.05-.05.05-.06.05-.05.05-.05.05-.05.05-.05.05-.05.05-.05.05-.05.05-.05.05-.05.05-.05.05-.05.05-.05.05-.05.05-.05.05-.05.05-.05.05-.05.05-.05.05-.05.05-.05.05-.05.05-.05.05-.05.05-.05.05-.05.05-.05.05-.05.05-.05.05-.05.05-.05.05-.05.05-.05.05-.04.05-.06.05-.04.05-.05.05-.05.05-.05.05-.05.05-.05.05-.05.05-.05.05-.05.05-.05.05-.04.05-.06.05-.05.05-.05.05-.05.05-.04.05-.06.05-.05.05-.05.05-.05.05-.05.05-.05.05-.05.05-.05.05-.05.05-.05.05-.05.05-.05.05-.05.05-.05.05-.05.05-.05.05-.05.05-.05.05-.05.05-.05.05-.05.05-.05.05-.05.05-.05.05-.05.05-.05.05-.05.05-.05.05-.06.05-.05.05-.05.05-.05.05-.05.05-.05.05-.05.05-.05.05-.05.05-.05.05-.05.04-.05.05-.05.05-.06.05-.04.05-.06.05-.05.05-.05.05-.05.05-.05.05-.05.05-.06.05-.04.05-.06.05-.05.05-.05.05-.05.05-.05.05-.05.05-.05.05-.05.05-.06.05-.05.05-.05.05-.05.05-.05.05-.05.05-.06.05-.05.04-.05.05-.05.05-.05.05-.06.05-.05.05-.05.05-.06.05-.04.04-.06.05-.05.05-.05.05-.06.05-.05.05-.05.05-.06.04-.05.05-.06.04-.05.04-.06.04-.05.04-.06.04-.05.04-.07.04-.05.04-.06.04-.06.04-.05.04-.06.04-.06.04-.06.04-.06.04-.06.04-.06.04-.05.04-.06.04-.06.04-.06.04-.06.04-.06.04-.06.04-.06.04-.06.04-.06.04-.06.04-.05.04-.06.04-.06.04-.06.04-.06.04-.06.04-.05.04-.06.05-.06.04-.06.04-.05.04-.06.04-.05.04-.06.04-.05.04-.06.04-.05.05-.06.05-.04.05-.06.05-.05.05-.05.05-.05.05-.05.05-.04.05-.05.05-.05.05-.05.05-.04.05-.05.05-.04.05-.04.06-.05.05-.04.06-.05.06-.04.05-.04.06-.05.06-.04.05-.04.06-.05.06-.04.05-.04.06-.05.05-.04.06-.05.06-.04.06-.04.05-.04.06-.04.05-.04.06-.04.05-.05.06-.04.06-.04.05-.04.06-.04.06-.04.06-.04.06-.04.06-.04.06-.04.05-.04.06-.04.05-.05.06-.04.06-.04.05-.04.06-.04.05-.05.06-.05.05-.04.06-.04.05-.05.05-.04.06-.05.06-.04.05-.05.05-.04.05-.05.05-.04.05-.04.05-.05.06-.04.06-.04.05-.05.06-.04.06-.04.05-.02.06-.04.06-.04.06-.04.06-.02.06-.02.06-.02.07-.02.06v.07l-.02.07-.02.07v.07l-.02.07v.07l-.02.07v.06l-.02.06v.07l-.05.06-.02.06-.02.06-.02.05-.05.05-.04.05-.06.04-.05.04-.06.04-.06.02-.07.02-.07.02-.06.02-.07.02-.07.02-.06.04-.06.04-.06.04-.05.04-.05.05-.04.05-.05.05-.04.05-.04.06-.04.06-.04.06-.02.06-.04.06-.02.06-.04.06-.02.06-.02.06-.04.06-.02.06-.04.06-.02.06-.04.06-.04.06-.04.06-.02.06-.04.06-.04.06-.04.06-.04.06-.04.06-.04.06-.04.05-.04.06-.04.06-.02.06-.05.06-.04.06-.02.06-.04.06-.04.06v.02l.31,1.89.3,2.68.22,2.69.24,2.69.24,2.68.27,2.68.27,2.68.09,2.69-.13,2.69-.07,1.28-.07,1.42-.17,2.69-.12,2.7.07,2.69-.2,2.69-.26,2.68.11,2.7-.06,2.68-.48,2.66-.6,2.65-.45,2.66-.02,2.7-.46,2.65-.66,2.62-.7,2.62-.67,2.61-.27,2.69v2.7l.11,2.69-.21,2.69-.26,2.68-.21,2.69-.17,2.69-.11,2.73v2.74l.8,2.49,2.15,1.78,2.81.04,2.66.34.46,2.65.06,2.73-.27,1.7-.14.92-1.2,2.46-1.69,2.13-1.98,1.91-1.81,2.05-1.85,2.01-1.85,2.02-1.65,2.23-.6,2.54.43,2.72.64,2.62.67,2.62.55,2.65.39,2.68v2.68l-.39,2.68-.7,2.62-1.24,2.4-1.64,2.2-1.88,2.03-1.22,2.33-.26,2.72.52,2.66.25,2.7-.44,2.65-.76,2.59-.85,2.59-.81,2.59-.8,2.6-.37,2.66-.06,2.7.13,2.7.4,2.66.63,2.63.24.96.43,1.68.65,2.62.22,2.68.12,2.69.21,2.69.21,2.69.09,2.69v2.72l-.45,2.63-1.11,2.48-1.25,2.43-1.5,2.27-2.09,1.78-2.15,1.77-2.09,1.83-1.32,2.28-.7,2.67-.9,2.55-.93,2.55-.92,2.55-.96,2.54-.81,2.57-.57,2.65-.46,2.66-.58,2.65-.59,2.63-.72,2.61-.91,2.55-1.18,2.44-1.54,2.26-1.77,2.1-1.98,1.9-.55.53-1.48,1.38-1.96,2-.92,2.43-.21,2.73-.02,2.74.24,2.68.19,2.69v2.69l-.06,2.69-.43,2.67-.37,2.18-.09.52-.81,2.46-2.79.68-2.73-.5h-2.78s-2.81-.08-2.81-.08l-2.79-.21-2.68-.68-2.61-1.03-2.7-.71-2.74-.61-2.72-.61-2.74-.6-2.73-.63-2.66-.83-2.68-.78-2.75-.53-2.76-.46-2.77-.4-2.76-.37-2.79-.33-2.79-.21-2.8-.12h-3.53s1.33-2.04,1.33-2.04l.99-2.53,1.03-2.52.87-2.56.72-2.6.6-2.62.34-2.68.61-2.62.92-2.55.5-2.65.12-2.7-.22-2.68-.24-2.69-.02-2.69.02-2.69-.09-2.69-.33-2.68-.2-2.68.12-2.69.05-2.69-.04-2.69-.17-2.69-.51-2.65-.58-2.65-.57-2.63-.55-2.65-.04-.21-.44-2.44-.48-2.66-.44-2.67-.3-2.68-.46-2.66-.6-2.63-.53-2.65-.53-2.65-.8-2.59-.94-2.53-1.12-2.48-1.23-2.42-1.25-2.41-1.15-2.46-1.06-2.49-1.09-2.48-1.39-2.35-1-2.5-.35-2.68-.15-2.69-.06-2.69.11-2.74-.8-2.46-1.84-2.08-1.96-1.9-2.27-1.57-2.13-1.76-1.98-1.9-1.32-2.37-1.02-2.52-.81-2.59-.21-2.68-.06-2.75-.14-2.73-1.2-2.18-2.42-1.55-2.22-1.64-2.08-1.79-1.98-1.87-1.96-1.91-1.94-1.94-2.07-1.82-2.07-1.82-2.22-2.09-1.61-1.52-21.92,7.66-1.64-2.17-1.66-2.17-1.69-2.14-1.65-2.17-1.62-2.2-1.74-2.14-1.61-2.18-.66-2.59-1.3-2.41-.72-2.57-.45-2.67-.64-2.62-.25-.77-.58-1.81-.73-2.6-.74-2.6-.85-2.56-.8-2.59-1.29-2.37-1.48-2.29-1.2-2.43-1.09-2.49-1.03-2.5-.98-2.53-.61-2.62-.4-2.67-.4-2.68-.21-2.69.26-2.69.12-2.69-.04-2.69-.31-2.68-.45-2.66-.28-2.68-.33-2.68-.61-2.62-.68-2.62-.6-2.63.07-2.88-.59-.15-1.72-.44h-5.86s-2.79.01-2.79.01h-2.79l-2.79.09-2.79.17-2.76.27-2.6.98-2.53,1.15-2.68.71-2.74.52-2.76.3-2.8.07-2.77.11-2.79.08-2.76.05h-5.58s-2.79.01-2.79.01h-2.79s-2.79.03-2.79.03l-2.79.11-2.76.14-2.79.06h-5.6l-.2-.08-2.39-1.03-.58-2.42-.4-2.69-1.09-2.46-1.29-2.37-.9-2.56-.84-2.57-.58-2.63-.15-2.69.08-2.69.44-2.68.33-2.67-.59-2.63v-2.67l.09-2.69v-2.7l1.32-2.24.68-2.36-.61-2.63-.74-2.6-.39-2.66-.08-2.7-.09-2.72.99-2.53-.24-2.54-1.25-2.47.57-2.61.12-2.67-.47-2.67-.35-2.73-.81-2.49-2.03-1.9-1.06-2.48-1.85-1.94-2.16-1.74-1.98-1.88-1.49-4.61-8.32-1.57-92.42-17.46,12.01-31.39,12.66-33.13,6.45-16.9,1.5-3.93,3.73-12.61,10.04-33.97,2.35-7.96,7.68-26.01,10-33.97,10-33.97,8.31-27.78,6.32-1.39,35.34-7.78,35.32-7.81,35.32-7.83,13.58-3.02,17.16-13.86,25.12-17.89,8.51-7.45.19,11.96"/>
  <path id="path100" class="cls-1" d="m642.82,474.51l1.46,2.66,1.97,1.9,2.05,1.79,2.29,1.52,2.2,1.64,2.01,1.87,2.05,1.82,1.78,2.08,2.21,1.58,1.91,1.95,1.92,1.96,2,1.87,2.03,1.84,1.98,1.89,1.89,1.97,1.12,1.32.65.76,1.63,2.18,1.44,2.3,1.42,2.33,1.29,2.39,1.04,2.5,1.11,2.47,1.26,2.41,1.25,2.41,1.23,2.42,1.07,2.49.89,2.56.7,2.61.58,2.63.59,2.63.52,2.65.33,2.68.41,2.67.5,2.66.65,2.62.84,2.59,1.24,2.4,1.15,1.76.34.53,1.56,2.23,1.69,2.15,1.7,2.13,1.72,2.13,1.69,2.14,1.62,2.2,1.65,2.16,1.75,2.1,1.74,2.11,1.65,2.17,1.58,2.22,1.51,2.26,1.49,2.28.89,2.54.8,2.57,1.09,2.49,1.15,2.46,1.22,2.42,1.29,2.4,1.26,2.4.12.28v.14s-.01.14-.01.14v.05s-.01.05-.01.05v.05s-.01.14-.01.14v.05s-.01.09-.01.09v.05s-.01.13-.01.13v.05s-.01.19-.01.19v.05s-.01.19-.01.19v.05s-.01.61-.01.61v.05s.01.05.01.05v.05s-.01.09-.01.09v.05s.01.09.01.09v.05s-.01.14-.01.14v.05s.01.05.01.05v.05s-.01.38-.01.38v.05s-.01.14-.01.14v.05s-.01.09-.01.09v.05s-.01.09-.01.09v.05s-.01.09-.01.09v.04s-.01.05-.01.05v.05s-.01.05-.01.05v.05s-.01.14-.01.14v-.11s-.01.05-.01.05v.05s-.01.14-.01.14v.05s-.01.19-.01.19v.05s-.01.28-.01.28v.05s.01.14.01.14v.05s.01.09.01.09v.05s.01.09.01.09v.05s.01.09.01.09v.05s.01.05.01.05v.05s.01.09.01.09v.05s.01.05.01.05v.05s.01.09.01.09v.05s.01.33.01.33v.05s.01.24.01.24v.05s.01.56.01.56v.15s-.01.08-.01.08v.15s-.01.05-.01.05v.05s-.01.05-.01.05v.05s-.01.05-.01.05l-.02.05v.05l-.02.05v.05l-.02.05v.05l-.02.05v.05l-.02.05v.04l-.02.05v.05l-.04.05v.1s-.03.05-.03.05v.05l-.02.05v.05l-.02.04v.05l-.02.05v.05l-.02.05v.05l-.02.05-.02.04v.05l-.02.05v.05l-.02.05v.05l-.04.04v.05l-.02.05v.05l-.02.05v.05l-.02.04v.05l-.02.05-.02.05v.05l-.02.05v.09s-.03.05-.03.05v.1s-.01.05-.01.05l-.02.05v.05l-.02.05v.1s-.01.05-.01.05l-.02.05v.14s-.01.05-.01.05v.05s-.01.05-.01.05v.05s-.01.09-.01.09v.05s-.01.13-.01.13v.05s-.01.05-.01.05v.29s-.01.24-.01.24v.05s-.01.05-.01.05v.15s-.01.05-.01.05l-.02.05v.14l-.02.05v.09l-.02.05v.05l-.02.05v.09l-.02.05v.05l-.02.05v.05l-.02.05v.05l-.02.05v.05l-.02.05v.05l-.02.04v.1s-.01.05-.01.05l-.02.05v.05l-.02.05v.04l-.02.05v.1s-.01.05-.01.05l-.02.05v.1s-.01.05-.01.05v.05s-.01.05-.01.05v.05s-.01.05-.01.05v.05s-.01.05-.01.05v.05s-.01.09-.01.09v.05s-.01.14-.01.14v.05s-.01.19-.01.19v.05s-.01.19-.01.19v.05s-.01.14-.01.14v.05s-.01.05-.01.05l-.02.05v.09l-.02.05v.09l-.04.05v.05l-.02.05v.05l-.02.05v.05l-.04.05v.05l-.04.04v.04l-.04.05v.05l-.02.05-.02.04v.05l-.02.04v.05l-.02.05v.05l-.02.04v.05l-.02.04v.19s-.01.18-.01.18v.05s.01.09.01.09l.02.05v.1s.01.05.01.05l.02.05v.05l.02.05v.05l.02.05v.05l.04.05v.05l.02.05v.05l.02.04v.05l.04.05v.05l.04.05v.05l.02.04v.05l.04.05v.05l.02.04v.05l.02.04.02.05v.04l.02.05.02.05v.05l.04.05v.04l.04.04v.05l.02.05.02.04v.04l.04.05v.04l.04.04v.05l.04.04v.05l.04.04v.04l.04.05.02.04v.05l.04.04v.04l.02.05.02.04v.05l.04.04.02.07v.05l.02.04v.05l.02.05v.05l.02.05v.05l.02.05v.05l.02.05v.05l.02.05v.08l.02.05.02.05v.1s.01.05.01.05l.02.04.02.05v.09l.04.05v.04l.02.05v.05l.04.04v.05l.02.04.02.05v.04l.04.05v.04l.04.05v.04l.04.05v.04l.04.04v.05l.04.04.02.04v.05l.04.05.02.04v.05l.04.04v.04l.04.05.02.04v.04l.04.05v.04l.04.04.02.05v.04l.04.05v.04l.02.05.02.05v.04l.04.05v.04l.02.05.02.04v.05l.02.04v.05l.02.05v.14s.01.05.01.05v.05s.01.05.01.05v.15s.01.52.01.52v.15s.01.09.01.09v.15s.01.38.01.38v.05s-.01.09-.01.09v.05s-.01.05-.01.05l-.02.05v.1s-.03.05-.03.05v.04l-.02.05v.05l-.04.04v.05l-.02.05-.02.04v.05l-.04.04v.05l-.04.04v.05l-.04.05-.02.04v.05l-.04.04v.05l-.04.04v.05l-.02.04v.05l-.04.05v.05l-.02.05v.05l-.02.05v.05l-.02.05v.05l-.02.05v.05l-.02.05v.05l-.02.05v.05l-.02.05v.09l-.04.05v.09l-.02.05v.04l-.02.05-.02.05v.05l-.02.04-.02.05v.04l-.02.05v.04l-.04.05-.02.04v.04l-.04.04-.02.05v.05l-.04.04-.02.04-.02.04-.02.04-.02.04-.02.04-.02.04-.02.04-.02.04-.02.04-.02.04-.02.04-.02.04-.02.04-.02.04-.02.04-.02.04-.02.05-.02.04-.02.04-.04.05-.02.04-.02.04-.02.05-.02.04-.02.04-.02.04-.02.04-.04.04-.02.04-.02.04-.02.04-.04.04-.02.04-.04.04-.02.04-.04.04-.02.04-.04.02-.04.04-.04.02-.05.02h-.04l-.04.04h-.06l-.04.02h-.05l-.05.02h-.05l-.06.02h-.09l-.05.02h-.09l-.04.02h-.05l-.05.04h-.04l-.04.04-.04.02-.04.02-.04.02-.02.04-.04.02-.04.04-.04.04-.02.04-.04.04-.02.04-.04.04-.02.04-.02.04-.04.04-.02.04-.04.04-.02.04-.04.04-.02.04-.02.04-.04.04-.02.04h-.01l-.09.02h-2.8l-2.72-.51-2.68-.81-2.75-.34h-2.79l-2.75.41-2.66.83-2.63.87-2.73.64h-2.74l-2.7-.64-2.67-.87-2.66-.54-2.14.43-.61.12-2.42,1.36-2.75.3-2.59.98-2.54,1.12-2.63.9-2.77.13-2.75-.39-2.73-.57-2.74-.51-2.76-.34-2.77-.07-2.77-.27-2.75-.38-2.77.2-2.77.11-2.77.14-2.76.35-2.73.54-2.76.32-2.79.06-2.79-.08-2.79-.21-2.69-.59-2.46-1.3-2.66-.81-2.61-.91-2.6-.97-2.69-.72-2.68-.7-2.67-.78-2.61-.93-2.57-1.04-2.65-.83-2.73-.53-2.8-.26-2.61.73-2.33,1.54-2.21,1.65-2.28,1.57-2.28,1.55-2.27,3.67-27.35-1.55-.64-40.97-.14-8.95-9.47,1.41-.58-3.74-.3-1.89-44.42.86-28.15.53h-.27l-.31-14.65-.22-10.31-72.23.67-1.75-2.1-1.69-2.15-1.89-1.96-2.14-1.71-2.08-1.79-1.89-1.96-1.44-2.3-1.39-2.35-1.18-2.42-.73-2.61-1.44-2.3-1.09-2.47-1.2-2.42-1.46-2.29-1.51-2.26-1.56-2.23-1.65-2.15-1.66-2.15-1.36-2.35-1.46-2.3-1.69-2.14-1.69-2.14-1.52-2.26-1.48-2.29-1.38-2.34-1.35-2.35-1.33-2.36-1.3-2.39-1.29-2.39-1.32-2.36-1.45-2.3-1.5-2.28-1.56-2.23-1.39-2.33-1.37-2.35-1.56-2.22-1.56-2.23-1.49-2.28-1.41-2.33-1.59-2.2-1.71-2.11-1.65-2.16-1.57-2.22-1.48-2.29-1.51-2.27-1.58-2.21-1.83-2.31,20.59-1.96-3.12-201.97,301.83,39.84-1.35,12.22,9.07,2.59-4.69,48.85v.02l-30.21-5.7-3.42,41.56-5.27.35-.06,2.88-.55,27.41,6.33,5.68,30.24.9,2.8,41.71.44,6.54.15-.76"/>
  <path id="path108" class="cls-1" d="m1595.55,479.41l-.7,4.46,3.01,3.67,11.8,14.36,11.76,12.54,8.58,9.15,10.36,11.35,7.95,1.12,11.82,1.66-1.9,23.63,35.98,5.74,2.63.43,6.39,1.02,20.59,6.15-1.17,5.46-5.93,27.51-.8,3.72-.45,2.1-.27,1.24-3.97,18.42-4.64,15.91-8.86,30.34-1.07,3.67-9.92,34.01-2.11,7.25-7.82,26.76-4.79,16.38-5.21,17.62-10.05,33.98-9.25,31.24-.78,2.74-8.92,30.98-.89,3.07-6.79,23.57-3.01,10.49-2.6,8.97-2.33,7.82-4.22,14.22-.89,2.99-10.11,33.97-2.11,7.08-4.55,14-4.13,12.69-3.2,9.81-5.67,5.04-13.47,11.99-27.04,23.98-5.17,4.59.67,1.1.71,1.1.71,1.09.7,1.09.71,1.09.7,1.1.68,1.1.67,1.11.65,1.11.63,1.13.61,1.13.6,1.15.6,1.15.6,1.16.58,1.17.55,1.17.52,1.18.48,1.19.44,1.2.38,1.22.31,1.23.31,1.24.28,1.25.27,1.26.26,1.26.25,1.26.22,1.26.41,2.55.18,1.28.17,1.28.14,1.28.13,1.28.11,1.28.09,1.26.07,1.26.06,1.26v1.26l-.17,1.25-.3,1.24-.39,1.25-.43,1.23-.44,1.24-.4,1.23-.37,1.23-.4,1.22-.41,1.22-.44,1.22-.43,1.22-.44,1.22-.41,1.22-.4,1.22-.38,1.23-.35,1.23-.32,1.24-.27,1.25-.22,1.25-.2,1.28-.18,1.26-.15,1.28-.12,1.29-.09,1.29-.07,1.29-.04,1.29v2.57l.05,1.28.07,1.28.08,1.29.11,1.3.13,1.3.17,1.3.21,1.29.25,1.28.31,1.24.39,1.22.45,1.17.53,1.12.66,1.06.77,1,.87.96.93.93.74.7,1.23,1.12.98.92.94.93.89.97.86.98.86.99.86.99.84,1,.81,1.02.09.14.67.91.7,1.07.63,1.11.59,1.15.54,1.16.52,1.18.5,1.19.47,1.2.46,1.22.46,1.2.46,1.2.47,1.19.48,1.2.48,1.2.46,1.2.43,1.23.37,1.23.28,1.24.21,1.25.17,1.26.12,1.26.08,1.28.07,1.28.04,1.28.04,1.29.04,1.29.04,1.29.04,1.28.07,1.68-3.29,24.34,2.3,4.31-1.35,5.31-.67,2.65-48.05-9.23-19.26-3.72,2.07-18.59-54.39-11.65-26.32-.59-3.4-.08-3.26,11.56-41.9-1.36-7.31,25.28-51.38-11.83-14.37-2.79-20.72-2.05-3.28-2.56-1.61-.04-1.26-.04h-2.82l-2.75.57-2.75.64-2.87.04-1.42-2.33.17-2.61.86-2.63.34-2.68-.13-2.73-1.36-2.35-2.17-1.65-2.75-.77-2.74-.76-2.04-1.76-1.72-2.18-1.72-2.14-2-1.9-2.11-1.78-2.14-1.77-2.21-1.66-2.46-1.33-2.4-1.42-2.42-1.38-2.53-1.18-2.65-.94-2.62-1.02-2.56-1.35-.41-2.44.44-2.72-2.29-1.46-2.5-1.24-2.46-1.3-1.55-2.24-.58-2.63-.52-2.66-.61-2.63-.81-2.59-1.28-2.39-2.03-1.88-2.11-1.82-1.03-2.47-.91-2.6-.21-2.61.6-2.28.09-.38-.05-2.7-.68-2.62-2.15-1.69-2.55-1.23-2.05-1.71-.55-2.66-.12-2.7-.27-2.68-.43-2.68-.9-2.5-2.23-1.65-2.3-1.59-1.18-2.35-.58-2.66-.48-2.66-9.45-29.38-4.76.17.45-8.09-4.91-1.07-1.75-15.07-.11-.89-16.72-.22-1.13-3.34.3-2.68.28-2.68-.18-2.85-1.45-1.9-2.93-.54-2.8-.31-2.8.11-2.83.18-2.99.19-2.26-.79-.66-2.82-.43-2.66-.12-2.72-.33-2.07-.08-.54-1.84-2.07-2.13-1.78-2.07-1.82-1.31-2.39-.77-2.6-1.12-2.48-1.39-2.34-1.7-2.16-2.04-1.83-2.05-1.89-.91-2.42-.66-2.55-1.62-2.24,6.38-37.15-9.64-6.92-13.71-9.85-6.07-56.14-.47-.09,12.69-39.96,32.5,6.88,3.75-15.15,12.45-50.21,8.05-.53,1.32-4.31,2.05-6.71,2.37-7.76,32.02,5.85,7.47-26.12,14.94,3.37,3.61-11.96,5.86.64,8.8-44.63,51.01-16.74,1.09-.35-4.72-63.56-3.58-1.78-2.6-.94-2.68-.73-2.66-.81-2.65-.83-2.75-.43-2.73-.53-2.67-.77-2.65-.92-2.48-1.18-1.49-2.22-.05-2.7v-2.73l-.45-2.63-1.43-2.34-.92-2.55-.44-2.66-.27-2.68-.2-2.69-.74-2.57-1.79-1.98-1.69-2.1-1-2.49-2.23-1.61-2.67-.79-2.72-.59-2.55-1.09-1.88-2.01-2.48-1.18-2.39,1.03-1.65,1.95-2.82-.25-2.73-.59-2.73-.38-2.82-.25-.4-2.24-1.57-.25-2.56,1.09-2.76.06-2.69-.7-2.86-.48-2.52-.73-.17-2.75,3.03-2.9,2.42-1.29,2.61-.87,2.77-.18,2.59-.72-1.89-1.82,2.09-1.77,2.72-.52,2.77.24,2.66.8,2.56,1,2.66.6,2.59-.94,2.8.17,2.49,1.05,2.27,1.43,2.55-1.15,2.72-.07,2.74-.53.04-2.52-1.54-2.1,1.85-2.11,2.33-1.58.58-2.5,2.03-1.48,1.23,2.07.02,2.44.64,2.23-1,2.48,2.22.64,2.79-.39,2.72-.74h.11l2.54.25,2.56,1.15,2.68.72,1.7-1.42-1.92-1.92-1.67-2.05-.99-2.3-2.27-1.66-.81-2.31,2.41-1.36,2.62-.86,2.75-.38,2.77-.12,2.76-.41,2.7-.54,2.28-1.58,2.54-.99,2.75-.5,2.73-.59,2.6-.9,2.31-1.51,2.13-1.75,2.67-.71,2.6-.93,2.73-.5,2.75-.5,2.47-1.13,2.3-1.54,2.63-.84,2.75.46,2.73.33,2.73-.46,2.75-.46,2.74-.45,2.68-.7,2.68-.72,2.7-.61,2.79-.09,2.77.12,2.79.07,2.79-.09,2.67-.76,2.41-1.33,1.64-2.2,1.54-2.23.31-2.69-.18-2.69-.85-2.6-2.01-1.61-2.73-.51-2.69-.65-2.47-1.32-1.25-2.27.32-2.67,1.33-2.37,1.78-2.07,2.11-1.75,2.02-1.84,2.04-1.82,2.4-1.37,2.26-1.57,2.21-1.64,2.29-1.54,2.11-1.72.89-.19,1.78-.38,2.15,1.37.97,2.54,1.75,2.09,2.7.33,2.01,1.36.08,2.59,2.57.26,2.73.27,2.76.28,2.76-.31,2.69-.28,2.8.35,2.36-1.18,2.5-1.16,2.57-.97,2.74-.45,2.75-.41,1.28.13,1.17.13.97,2.56,1.65,2.16,2.13,1.7.26,2.54-2.81.06-2.65-.3,1.72,2.1,1.9,1.9,2.53,1.16,2.75.41,2.72.53,2.6.96,2.21,1.64,2.42,1.29,2.72.54,2.79-.02,2.75-.37,2.75-.2,2.79.19,2.76.31,2.76.15,2.76.31,2.72.52,2.75.51,2.8.22,1.85-1.82.64-2.67,1.59-2.03.87-.14,1.94-.33,2.75.28,2.68.74,2.66.73,2.63.8,2.77.09,2.75.34,2.69.66,2.68.68,2.69.7.89-116.63,16.05-.04,19.26-.05,17.04.17,26.69.26,5.14,2.17,1.03,3.78,5.41,20.09,4.3,13.97,3.2,10.43,8.4,24.63"/>
  <path id="path110" class="cls-1" d="m963.24,499.38l-11.04,68.3-7.11-.87-3.73,12.04-3.26.06-4.33,22.97-5.43-.68-4.82,49.17-1.05,10.65-1.62,3.78-.71,2.6-.33,2.69-.34,2.68-.15,2.68.39,2.68-.06.66-.19,2.01-.58,2.66-.45,2.67-.78,2.57-1.15,2.47-1.43,2.34-1.96,1.88-2.8.33-2.75-.35-2.73-.59-2.7-.66-2.66-.8-2.62-.94-2.57-1.04-2.5-1.24-2.66-.66-2.8-.15-2.8-.15-2.72-.54-2.66-.8-2.63-.91-.73-.25-1.91-.64-1.48,31.89-24.5.83-.46,23.23-38.38,1.11-.54-19.99-.48-17.62-2.8-.04-2.75-.3-2.66-.8-.07-.02-2.55-.92-2.67-.78-2.72-.63-2.72-.58-2.75-.51-2.74-.45-2.74-.51-2.72-.6-2.09-.31-.68-.11-2.74.19-2.35,1.42-1.41,2.37-1.18,2.42-.92,2.55-1,2.52-1.22,2.46-1.98,1.87-2.56.98-2.82.05h-2.79l-2.8.21-2.7.55-2.52,1.19-2.44,1.3-2.41,1.37-.32.13-2.26.89-2.76.45-2.74-.37-2.68-.74-.39-.08-2.35-.47-2.76-.39-2.79-.17-2.75.41-2.76.31-2.79.02-.28.08-2.39.72-2.69.72-2.77.21-2.75-.4-2.42-1.29-2.61-.92-2.69-.71-2.73-.58-2.77-.34h-2.79l-2.77-.15-2.79-.13-2.79.05-2.79.06-2.77-.27-2.76-.37-2.75-.41-2.76-.48-2.56-.97-2.39-1.43-2.43-1.32-2.46-1.29-2.48-1.23-2.56-1.06-2.73-.6-2.48-1.2-2.22-1.64-2.1-1.76-2.47-1.25-2.7-.65-2.63-.91-2.69-.7-2.7-.63-2.75-.27-2.67-.77-2.63-.9-2.7-.64-2.76-.33-2.75-.44-2.79-.15-2.79-.05-2.75-.37-2.7-.7-2.17-1.68-1.5-2.28-1.57-2.23-1.58-2.23-2.14-1.72-2.5-1.17-2.75-.34h-3.14l.06-.44-.04-2.67-.8-2.56-.98-2.54-.85-2.57-.63-2.62-.54-2.65-.5-2.66-.39-2.67-.3-2.68-.25-2.68-.34-2.68-.19-2.69v-2.7l-.13-2.69-.21-2.69-.48-5.22,2.27-3.67,2.28-1.55,2.28-1.57,2.21-1.65,2.33-1.54,2.61-.73,2.8.26,2.73.53,2.65.83,2.57,1.04,2.61.93,2.67.78,2.68.7,2.69.72,2.6.97,2.61.91,2.66.81,2.46,1.3,2.69.59,2.79.21,2.79.08,2.79-.06,2.76-.32,2.73-.54,2.76-.35,2.77-.14,2.77-.11,2.77-.2,2.75.38,2.77.27,2.77.07,2.76.34,2.74.51,2.73.57,2.75.39,2.77-.13,2.63-.9,2.54-1.12,2.59-.98,2.75-.3,2.42-1.36.61-.12,2.14-.43,2.66.54,2.67.87,2.7.65h2.74l2.73-.65,2.63-.87,2.66-.83,2.75-.41h2.79l2.75.34,2.68.81,2.72.51h2.89v-.02s.03-.04.03-.04l.04-.04.02-.04.02-.04.04-.04.02-.04.04-.04.02-.04.04-.04.02-.04.02-.04.04-.04.02-.04.04-.04.02-.04.04-.04.04-.04.04-.02.02-.04.04-.02.04-.02.04-.02.04-.02h.04l.05-.04h.05l.04-.02h.1s.05-.01.05-.01l.06-.02h.09l.05-.02h.05l.05-.02h.04l.06-.02.04-.02h.04l.05-.04.04-.02.04-.04.04-.02.02-.04.04-.04.02-.04.04-.04.02-.04.04-.04.02-.04.02-.04.02-.04.04-.04.02-.04.02-.04.02-.04.02-.04.02-.05.02-.04.02-.04.04-.05.02-.04.02-.04.02-.05.02-.04.02-.04.02-.04.02-.04.02-.04.02-.04.02-.04.02-.04.02-.04.02-.04.02-.04.02-.04.02-.04.02-.04.02-.04.02-.04.02-.04v-.05l.04-.05.02-.04v-.04l.04-.04.02-.05v-.04l.02-.05v-.04l.04-.05v-.04l.02-.05.02-.05v-.05l.02-.04v-.05l.02-.05v-.05l.02-.05v-.1s.03-.05.03-.05v-.09l.02-.05v-.05l.02-.05v-.05l.02-.05v-.05l.02-.05v-.05l.02-.05v-.05l.02-.05.02-.05v-.05l.02-.04v-.05l.04-.04v-.05l.04-.04v-.05l.04-.04.02-.05v-.05l.04-.04v-.05l.04-.04v-.05l.04-.04v-.05l.02-.05.02-.04v-.05l.02-.05v-.04l.04-.05v-.09l.02-.05v-.05.02s.01-.05.01-.05v-.05s.01-.09.01-.09v-.05s.01-.35.01-.35v-.15s-.01-.09-.01-.09v-.12s-.01-.5-.01-.5v-.15s-.01-.05-.01-.05v-.05s-.01-.05-.01-.05v-.05s-.01-.05-.01-.05l-.02-.05v-.04l-.02-.05-.02-.04v-.05l-.02-.04-.02-.05v-.04l-.04-.05v-.05l-.02-.04-.02-.05v-.04l-.04-.05-.02-.04v-.04l-.04-.05v-.04l-.04-.04-.02-.05v-.04l-.04-.04v-.05l-.04-.04-.02-.05v-.05l-.04-.04-.02-.04v-.05l-.04-.04v-.04l-.04-.05v-.04l-.04-.05v-.04l-.04-.05v-.04l-.04-.05v-.04l-.02-.05-.02-.04v-.05l-.02-.05v-.04l-.04-.05v-.1s-.03-.05-.03-.05v-.04l-.02-.05v-.09l-.04-.05v-.05l-.02-.04v-.05l-.02-.05v-.08l-.02-.05v-.05l-.02-.05v-.05l-.02-.05v-.05l-.02-.05v-.04l-.02-.05-.02-.07-.02-.04v-.05l-.04-.04v-.05l-.02-.04-.02-.04v-.05l-.04-.04-.02-.05v-.04l-.04-.04v-.05l-.04-.04v-.05l-.04-.04v-.04l-.04-.05v-.04l-.04-.04v-.05l-.02-.05-.02-.04v-.04l-.04-.05v-.05l-.04-.05v-.05l-.02-.04-.02-.05v-.04l-.02-.05v-.04l-.02-.05-.02-.05v-.05l-.02-.04v-.05l-.04-.05v-.05l-.04-.05v-.05l-.02-.04v-.05l-.02-.05v-.05l-.04-.05v-.05l-.02-.05v-.05l-.02-.05v-.05l-.02-.05v-.1s-.01-.05-.01-.05l-.02-.05v-.1s-.01-.08-.01-.08v-.05s-.01-.19-.01-.19v-.05s.01-.08.01-.08l.02-.05v-.04l.02-.05v-.05l.02-.05v-.04l.02-.05.02-.04v-.05l.02-.05.02-.05v-.04l.04-.04v-.05l.04-.05v-.05l.02-.05v-.05l.02-.05v-.05l.04-.05v-.1s.01-.05.01-.05l.02-.05v-.09l.02-.05v-.14s.01-.14.01-.14v.08s.01-.19.01-.19v-.05s.01-.19.01-.19v-.05s.01-.14.01-.14v-.05s.01-.09.01-.09v-.05s.01-.05.01-.05v-.05s.01-.05.01-.05h.01v-.1s.01-.05.01-.05l.02-.05v-.1s.01-.05.01-.05l.02-.05v-.04l.02-.05v-.05l.02-.05v-.1s.01-.05.01-.05l.02-.04v-.05l.02-.05v-.05l.02-.05v-.05l.02-.05v-.05l.02-.05v-.05l.02-.05v-.1s.01-.05.01-.05l.02-.05v-.05l.02-.05v-.09l.02-.05v-.14l.02-.05v.05-.2s.01-.05.01-.05v-.05s.01-.24.01-.24v-.05s.01-.12.01-.12v-.18s.01-.13.01-.13v-.05s.01-.09.01-.09v-.05s.01-.05.01-.05v-.05s.01-.05.01-.05v-.05s.01-.05.01-.05l.02-.05v-.09l.02-.05v-.05l.02-.05v-.1s.01-.05.01-.05l.04-.05v-.08l.02-.05v-.05l.04-.05v-.05l.02-.05v-.04l.02-.05v-.05l.02-.05v-.05l.02-.05.02-.04v-.05l.02-.05v-.05l.02-.05v-.05l.04-.04v-.05l.02-.05v-.05l.02-.05v-.05l.02-.05v-.04l.02-.05v-.05l.02-.05.02-.05v-.09l.04-.05v-.05l.02-.05v-.04l.02-.05v-.05l.02-.05v-.05l.02-.05v-.05l.02-.05v-.05l.02-.05v-.1s.01-.05.01-.05v.12s.01-.05.01-.05v-.05s.01-.05.01-.05v-.14s.01-.09.01-.09v-.15s.01-.53.01-.53v-.05s-.01-.24-.01-.24v-.05s-.01-.31-.01-.31v-.05s-.01-.09-.01-.09v-.05s-.01-.05-.01-.05v-.05s-.01-.09-.01-.09v-.05s-.01-.05-.01-.05v-.05s-.01-.09-.01-.09v-.05s-.01-.09-.01-.09v-.05h-.01v-.05s-.01-.19-.01-.19v-.05s-.01-.26-.01-.26v-.05s.01-.17.01-.17v-.05s.01-.14.01-.14v-.05s.01-.05.01-.05v-.05s.01-.14.01-.14v-.05s.01-.05.01-.05v-.04s.01-.05.01-.05v-.05s.01-.09.01-.09v-.05s.01-.09.01-.09v-.05s.01-.09.01-.09v-.05s.01-.14.01-.14v-.05s.01-.19.01-.19h0v-.17s.01-.05.01-.05v-.05s-.01-.14-.01-.14v-.05s.01-.09.01-.09v-.02s-.01-.09-.01-.09v-.05s.01-.05.01-.05v-.05s-.01-.59-.01-.59v-.05s.01-.17.01-.17v-.05s.01-.19.01-.19v-.02s.01-.14.01-.14v-.05s.01-.09.01-.09v-.05s.01-.14.01-.14v-.05s.01-.05.01-.05v-.02s.01-.14.01-.14v-.05s-.11-.28-.11-.28l-1.26-2.4-1.29-2.4-1.22-2.42-1.15-2.46-1.09-2.49-.8-2.57-.89-2.54-1.49-2.28-1.51-2.26-1.58-2.22-1.65-2.17-1.74-2.11-1.75-2.1-1.65-2.16-1.62-2.2-1.69-2.14-1.72-2.13-1.7-2.13-1.69-2.15-1.56-2.23-.34-.53-1.15-1.76-1.24-2.4-.84-2.59-.65-2.62-.5-2.66-.41-2.67-.33-2.68-.52-2.65-.59-2.63-.58-2.63-.7-2.61-.89-2.56-1.07-2.49-1.23-2.42-1.25-2.41-1.26-2.41-1.11-2.47-1.04-2.5-1.29-2.39-1.42-2.33-1.44-2.3-1.63-2.18-.65-.76-1.12-1.32-1.89-1.97-1.98-1.89-2.03-1.84-2-1.87-1.92-1.96-1.91-1.95-2.21-1.58-1.78-2.08-2.05-1.82-2.01-1.87-2.2-1.64-2.29-1.52-2.05-1.79-1.97-1.9-1.46-2.66,46.59-.14,2.49,1.16,2.17,1.63,2.75.43,2.79.02,2.76-.09,2.77.08,2.77.07,2.79-.07,2.75-.28,2.68-.73,2.7-.55,2.76.13,2.77.22,2.75.24,2.6.92,2.57,1.05,2.59.99,2.57.99,2.57,1.02,2.59.99,2.61.91,2.63.84,2.7.6,2.75.37,2.76.25,2.77.25,2.76.32,2.76.08,2.76-.27,2.74-.51,2.66-.74,2.52-1.17,2.4-1.37,2.29-1.54,2.11-1.74,1.23-2.43.38-2.66.13-2.72.3-2.68.48-2.65.61-2.63.48-2.66.33-2.68.13-2.69.55-3.8,32.74-.43,26.8-.37,1.56,36.25,14.25,1.03.81.06-.58,19.67.46-.08,25.84-4.4,4.56,1.61,3.81,1.35,45,3.6,1.26-9.8,1.67-1.59,1.96,1.32,1.82,1.55,1.33-2.33,2.37-1.13,2.74.52,2.74.48,5.56.8"/>
  <g id="g116">
    <path id="path118" class="cls-1" d="m1201.56,577.42l.17,2.75,2.52.73,2.86.48,2.69.7,2.76-.06,2.56-1.09,1.57.25.4,2.24,2.82.25,2.73.38,2.73.59,2.82.25,1.65-1.95,2.39-1.03,2.48,1.18,1.88,2.01,2.55,1.09,2.72.59,2.67.79,2.23,1.61,1,2.49,1.69,2.1,1.79,1.98.74,2.57.2,2.69.27,2.68.44,2.66.92,2.55,1.43,2.34.44,2.63v2.73l.06,2.7,1.49,2.22,2.48,1.18,2.65.92,2.67.77,2.73.53,2.75.43,2.65.83,2.66.81,2.68.73,2.6.94,3.58,1.78,4.72,63.56-1.09.35-51.01,16.74-8.8,44.63-5.86-.64-3.61,11.96-14.94-3.37-7.47,26.12-32.02-5.85-2.37,7.76-2.05,6.71-1.32,4.31-8.05.53-12.45,50.21-3.75,15.15-32.5-6.88-12.69,39.96-36.96-7,1.7,11.03,1.65,10.67-27.94,2.16-3.92-.78-7.86-1.57-1.63,5.04-.64,1.97-16.6,1.72.22,2.74-1.43.67-.91,2.73.07,2.96-.12.22-.85,1.5-3.01-.7-2.68-.8-2.61-1.15-1.13-2.16-2.55-1.2-2.74-.6-2.86-.08-1.39,2.08-.31,2.68.09,2.7-.19,2.76-.91,2.41-2.72.9-2.77.47-2.22,1.52-1.1,2.48-.68,2.62-.87,2.56-.92,2.54-.73,2.63-.53,1.33-.46,1.16-1.82,2.13-2.61.78-2.86.34-2.27,1.39-1.95,2-2.43,1.37-2.62.9-2.81.33-2.74.53-2.15,1.77-2.67.61-2.65-.89-2.8-.05-2.77.41-2.77.46-2.76.52-2.66.97-2.53,1.28-1.36,1.39-.46.48-.94,2.62-.8,2.6-.66,2.62-.64,2.63-.67,2.62-.74,2.69-1.45,2.14-2.52,1.22-2.77.76-2.77.14-1.17-.06-1.67-.09-2.81-.08-2.8-.13-2.8-.32-2.79-.27-2.77.37-2.7.74-2.53,1.16-2.53,1.19-2.48,1.25-2.36,1.46-2.61.74-2.82-.25-2.83.09-2.48,1.11-2.07,1.9-2.05,1.83-2.26.26-.47.06-2.77.44-2.75.59-2.48,1.22-2.5,1.2-2.77.33-2.77-.45-2.77-.4-2.79-.32-2.8-.21h-2.81l-2.81.05-2.81.05-13.52-2.18-3.61-.58-6.2,4.78-4.44-4.83,1.13-46.48.96-39.25,12.33.77,1.28-10.72.06-.4-13.06-1.78.73-6.95h-.06l1.5-30.81,37.16-1.75.31-62.16.06-12.2.04-6.09,8.28-.99,4.48-5.44-6.81-8.41,5.83-.67.64-32.04.46-23.23,24.5-.83,1.48-31.89,1.91.64.73.25,2.63.91,2.66.8,2.72.54,2.8.15,2.8.15,2.66.66,2.5,1.24,2.57,1.04,2.62.94,2.66.8,2.7.66,2.73.59,2.75.35,2.8-.33,1.96-1.88,1.43-2.34,1.15-2.47.78-2.57.45-2.67.58-2.66.19-2.01.06-.66-.39-2.68.15-2.68.34-2.68.33-2.69.71-2.6,1.62-3.78,1.05-10.65,4.82-49.17,5.43.68,4.33-22.97,3.26-.06,3.73-12.04,7.11.87,11.04-68.3.84-5.22,22.06,3.61,61.17,9.97-2.39,32.89,74.6,13.65-1.59,8.74,83.64,14.3"/>
  </g>
  <path id="path132" class="cls-1" d="m492.38,583.01l44.42-.86.3,1.89.58,3.74,9.47-1.41.14,8.95.64,40.97,27.35,1.55.48,5.22.21,2.69.14,2.69v2.7l.18,2.69.34,2.68.25,2.68.3,2.68.39,2.67.5,2.66.54,2.65.63,2.62.85,2.57.98,2.54.8,2.56.04,2.67-.06.45-.28,2.26-.37,2.67-.66,2.65.09,2.65.48,2.66-.07,2.69v2.7l.04,2.7-.07,2.69-.15,2.69-.12,2.69-.11,2.7-.07,2.69v2.7l.11,2.7.09,2.73.76,2.54.74,1.16.74,1.19.43,2.59-.3,2.73-.34,2.68-.4,2.67-.35,2.68-.2,2.69-.3,2.68-.47,2.66-.27,2.68v2.69l.09,2.7v2.7l.07,2.69.27,2.68.52,2.65.72,2.61.02.09.8,2.48.05.13.86,2.42.9,2.55.84,2.57.66,2.61.41,2.68.22,2.69-.09,2.7-.05,1.91-.02.79v2.7l.21,2.68.47,2.66.53,2.65.54,2.65.6,2.63.8,2.61-.44,2.62-.8,2.62-.24,2.63,1.58,2.11,2.73.87,2.21,1.55,2.29,1.55,1.45,2.31.31,2.67-.32,1.35-.3,1.3-1.35,2.36-1.84,2.04-.55.7-3.42,7.89-1.75,8.12-1.07,10.62-1.57,11.29.59,9.06.04,4.65.05,5.75-2.73,8.18.32,1.31.54,2.65.26,2.72-.55,2.59-1.57,2.28-2.07,1.79-2.42,1.41-2.15,1.72-2.07,1.83-2.17,1.71-2.22,1.64-2.4,1.39-2.41,1.36-2.17,1.74-1.97,1.95-1.46,2.24-1.1,2.48-.98,2.56-1.15,2.46-1.46,2.3-1.23,2.41-.85,2.57-.93,2.55-.8,2.59-.65,2.62-.59,2.63-.07.37-.46,2.29-.48,2.66-.46,2.66-.44,2.67-.43,2.67-.38,2.67-.39,2.21-.08.45-.59,2.65-.78,2.59-1.11,2.47-1.37,2.37-1.42,2.33-1.42,2.33-1.32,2.39-1.2,2.43-.89,2.56-.98,2.54-.78,2.57-.41,2.67-.37,2.68-.55,2.67-.27,2.62.83,2.59.54,2.65.51,2.66.77,2.59.97,2.54.15.35.91,2.14,1.1,2.49.65,2.63-.22,2.65-1.18,2.49.12,2.69-1.46,2.14-.73,2.61.77,2.53,1.51,2.31,1.03,2.52.35,2.65-.02,2.72-.12,2.68-.91,2.56-.85,2.57-.93,2.5-.11.04-2.5.89-2.6,1.02-2.5,1.24-2.35,1.48-2.17,1.71-2.24,1.62-2.4,1.43-2.5,1.22-2.72.78-2.79-.24-2.68-.85-1.95-1.92-.91-2.56-.59-2.66-1.49-2.18-2.55-1.15-2.77-.44-2.76.39-2.75.51-2.82.08-2.81-.02-2.8-.18-2.8-.32-2.82-.24-2.63-.79-2.15-1.74-1.98-1.98-2.16-1.61-2.82-.34-2.76-.47-2.79-.35-2.75-.4-.87-.63-1.33-.94-1.29-2.42-2.21-1.65-11.5-23.89-9.75-25.16-.74-1.9-.56-25.26-10.59-2.34,2.72-39.63h1.98l2.73.51,2.79-.68.81-2.46.09-.52.37-2.18.43-2.67.05-2.69v-2.69l-.18-2.69-.24-2.68.02-2.74.21-2.73.92-2.43,1.96-2,1.48-1.38.55-.53,1.98-1.9,1.77-2.1,1.54-2.26,1.18-2.44.91-2.55.72-2.61.59-2.63.58-2.65.46-2.66.57-2.65.81-2.57.96-2.54.92-2.55.93-2.55.9-2.55.7-2.67,1.32-2.28,2.09-1.83,2.15-1.77,2.09-1.78,1.5-2.27,1.25-2.43,1.11-2.48.44-2.63v-2.72l-.08-2.69-.21-2.69-.21-2.69-.12-2.69-.22-2.68-.65-2.62-.43-1.68-.24-.96-.63-2.63-.4-2.66-.13-2.7.06-2.7.37-2.66.8-2.6.81-2.59.85-2.59.76-2.59.44-2.65-.25-2.7-.52-2.66.26-2.72,1.22-2.33,1.88-2.03,1.64-2.2,1.24-2.4.7-2.62.39-2.68v-2.68l-.39-2.68-.55-2.65-.67-2.62-.64-2.62-.43-2.72.6-2.54,1.65-2.23,1.85-2.02,1.85-2.01,1.81-2.05,1.98-1.91,1.69-2.13,1.2-2.46.14-.92.27-1.7-.06-2.73-.46-2.65-2.66-.34-2.81-.04-2.15-1.78-.81-2.49v-2.74l.12-2.73.17-2.69.21-2.69.26-2.68.21-2.69-.09-2.69v-2.7l.26-2.69.67-2.61.7-2.62.66-2.62.46-2.65.02-2.7.45-2.66.6-2.65.48-2.66.06-2.68-.11-2.7.26-2.68.2-2.69-.07-2.69.12-2.7.17-2.69.07-1.42.07-1.28.13-2.69-.09-2.69-.27-2.68-.27-2.68-.24-2.68-.24-2.69-.22-2.69-.3-2.68-.32-1.89v-.02l.05-.06.04-.06.02-.06.04-.06.05-.06.02-.06.04-.06.04-.06.04-.05.04-.06.04-.06.04-.06.04-.06.04-.06.04-.06.02-.06.04-.06.04-.06.04-.06.02-.06.04-.06.02-.06.04-.06.02-.06.02-.06.04-.06.02-.06.04-.06.02-.06.04-.06.04-.06.04-.06.04-.05.05-.05.04-.05.05-.05.05-.04.06-.04.06-.04.06-.04.07-.02.07-.02.06-.02.07-.02.07-.02.06-.02.06-.04.05-.04.06-.04.04-.05.05-.05.02-.05.02-.06.02-.06.04-.06v-.07l.02-.06v-.06l.02-.07v-.07l.04-.07v-.07l.02-.07v-.07l.02-.07.02-.06.02-.07.02-.06.02-.06.04-.06.04-.06.04-.06.02-.06.04-.05.04-.06.05-.06.04-.05.04-.06.05-.06.04-.05.04-.05.05-.05.04-.05.05-.05.04-.05.05-.06.04-.06.05-.05.04-.05.04-.06.05-.05.05-.06.04-.05.04-.06.04-.05.04-.06.05-.06.04-.05.04-.06.04-.05.04-.06.04-.06.04-.06.04-.06.04-.06.04-.06.04-.05.04-.06.05-.06.04-.05.04-.06.04-.05.04-.06.04-.05.04-.06.05-.06.04-.06.05-.05.04-.06.04-.05.05-.06.04-.06.04-.05.05-.06.04-.06.04-.05.05-.06.04-.06.05-.05.04-.06.04-.05.05-.05.04-.05.05-.05.05-.05.05-.05.04-.05.05-.05.05-.05.05-.05.05-.05.06-.05.04-.05.06-.05.05-.05.06-.04.05-.04.06-.04.05-.04.06-.04.05-.04.06-.04.06-.04.06-.05.05-.04.06-.04.06-.04.06-.04.06-.04.06-.04.05-.04.06-.04.06-.04.06-.04.06-.04.06-.04.06-.04.06-.04.06-.04.06-.04.06-.04.05-.04.06-.04.06-.04.06-.04.06-.04.06-.04.06-.04.05-.04.06-.04.06-.04.05-.04.07-.04.05-.04.06-.04.05-.04.06-.04.05-.04.06-.04.05-.05.06-.04.05-.05.05-.05.06-.05.05-.05.05-.05.06-.05.04-.04.06-.05.05-.05.05-.05.06-.05.05-.05.05-.05.05-.05.05-.04.06-.05.05-.05.05-.05.05-.05.05-.05.05-.05.06-.05.05-.05.05-.05.05-.05.05-.05.05-.05.05-.05.05-.05.06-.05.04-.05.06-.05.05-.05.05-.05.05-.05.05-.05.05-.05.06-.05.04-.05.06-.05.05-.05.05-.05.05-.04.05-.05.05-.05.05-.05.05-.05.05-.05.05-.05.05-.05.05-.05.05-.05.06-.05.05-.05.05-.05.05-.05.05-.05.05-.05.05-.05.05-.05.05-.05.05-.05.05-.05.05-.05.05-.05.05-.05.05-.05.05-.05.05-.05.05-.05.05-.05.05-.05.05-.05.05-.05.05-.05.05-.05.05-.05.05-.05.05-.05.05-.05.06-.05.04-.05.05-.05.05-.05.05-.05.06-.05.04-.05.05-.05.05-.05.05-.05.05-.05.05-.05.05-.05.05-.05.05-.05.05-.05.04-.05.06-.05.04-.05.05-.05.05-.05.05-.05.05-.05.05-.05.05-.05.05-.05.05-.05.05-.05.05-.05.05-.05.05-.05.05-.05.05-.05.05-.05.05-.05.05-.05.05-.05.05-.05.05-.05.05-.05.05-.05.05-.05.05-.05.05-.05.05-.05.05-.05.05-.05.05-.05.05-.05.05-.05.05-.05.06-.05.05-.05.05-.05.05-.05.05-.05.05-.05.05-.05.05-.05.05-.05.05-.05.05-.05.05-.05.05-.05.05-.05.05-.05.06-.05.05-.05.05-.05.05-.05.05-.05.05-.05.06-.05.04-.05.06-.05.05-.05.05-.05.05-.05.05-.05.05-.05.05-.04.05-.05.06-.05.04-.05.06-.05.05-.05.05-.05.05-.05.05-.05.06-.05.04-.05.06-.05.05-.05.05-.05.05-.05.05-.05.06-.05.05-.05.05-.05.06-.05.05-.05.06-.05.05-.04.06-.05.05-.05.06-.04.05-.05.05-.04.06-.04.05-.05.06-.04.05-.04.06-.05.05-.04.06-.05.05-.04.06-.04.05-.05.06-.04.05-.05.05-.05.05-.05.05-.05.06-.05.05-.05.05-.05.05-.05.05-.05.05-.05.05-.05.05-.05.04-.05.05-.05.04-.05.05-.05.04-.05.05-.05.04-.06.04-.05.05-.06.04-.05.05-.06.04-.05.04-.05.04-.06.04-.06.05-.05.04-.06.04-.05.04-.06.04-.06.04-.06.04-.06.04-.06.04-.05.04-.06.04-.06.05-.06.02-.06.04-.06.04-.05.04-.06.04-.06.04-.06.04-.06.04-.06.04-.06.04-.06.04-.06.04-.06.04-.06.04-.06.04-.06.04-.06.04-.06.04-.06.04-.06.04-.06.04-.06.04-.06.04-.06.04-.06.05-.11.02-.06.02-.06.02-.06.04-.06.02-.06.02-.06.04-.06.02-.06.02-.06.02-.06.02-.06.02-.06.04-.06.02-.06.02-.06.02-.06.04-.06.02-.06.02-.06.02-.06.04-.06.02-.06.02-.06.02-.06.02-.06.04-.06.02-.06.02-.06.02-.06.04-.06.02-.06.02-.06.02-.06.02-.06.02-.06.04-.06.02-.06.02-.06.02-.06.04-.06.02-.06v-.06l.05-.06.02-.06.02-.06.02-.06.02-.06.02-.06.02-.06.04-.06.02-.06.02-.06.02-.06.02-.06.02-.06.02-.06.02-.06.02-.06v-.06l.05-.06v-.06l.04-.06.02-.06.02-.06.02-.07.02-.06.02-.06.02-.06.02-.06.02-.06.02-.06.02-.06.02-.06.02-.06.02-.06.02-.06v-.06l.04-.06.02-.06.02-.06.02-.06.02-.06.02-.06.02-.06.02-.06.02-.06.02-.06v-.06l.04-.06.02-.06.02-.06.02-.06.02-.06v-.06l.04-.06.02-.06.02-.06v-.06l.04-.06v-.06l.04-.06.02-.06v-.07l.04-.06.02-.06v-.07l.05-.06v-.07l.04-.06.02-.07.02-.07.02-.06.02-.07v-.06l.04-.06.02-.07.02-.07.02-.07v-.06l.04-.07.02-.07v-.06l.02-.06.02-.06v-.07l.02-.06v-.07l.02-.06v-.06h.01v-.38l-.02-.06v-.12l-.02-.06v-.06l-.02-.06-.02-.06-.02-.06v-.06l-.04-.06v-.06l-.04-.06-.02-.06-.02-.06-.02-.06-.02-.06-.02-.06-.02-.06-.02-.06-.02-.06-.04-.06-.02-.06-.02-.06-.04-.06-.02-.07-.04-.06-.02-.06-.04-.06-.04-.06-.02-.06-.02-.06-.04-.06-.04-.06-.02-.06-.04-.06-.02-.06-.04-.06-.02-.06-.04-.06-.02-.06-.04-.06-.02-.06-.04-.06-.02-.06-.02-.06-.02-.06-.04-.06-.02-.06-.02-.06-.02-.06-.02-.06-.02-.06-.02-.06-.02-.06-.02-.06-.02-.06-.04-.06v-.06l-.04-.06-.04-.06v-.06l-.05-.06v-.06l-.05-.06v-.06l-.05-.07-.02-.06v-.06l-.05-.06-.02-.06v-.06l-.05-.06v-.06l-.04-.06-.02-.06-.02-.06-.02-.06-.02-.06-.02-.06-.02-.06v-.06l-.05-.06-.02-.06v-.06l-.04-.06-.02-.06-.02-.06-.02-.06v-.06l-.04-.06-.02-.06-.02-.06v-.06l-.04-.06-.02-.06-.02-.07v-.06l-.04-.06v-.06l-.04-.07-.02-.06v-.06l-.04-.06-.02-.06v-.06l-.04-.07v-.06l-.04-.06v-.06l-.04-.06v-.06l-.04-.07-.02-.06v-.06l-.02-.07-.02-.06v-.06l-.04-.07v-.06l-.04-.06v-.07l-.02-.06v-.07l-.04-.06v-.07l-.02-.06v-.07l-.02-.06v-.07l-.04-.06v-.13l-.02-.07v-.06l-.02-.06v-.13s-.01-.06-.01-.06l-.02-.07v-.13s-.01-.14-.01-.14v-.27s-.01-.47-.01-.47v-.21s.01-.35.01-.35v-.02s.01-.72.01-.72l-.02-.07v-.2l-.02-.06v-.06l-.02-.06v-.06l-.04-.06v-.07l-.02-.06v-.07l-.04-.06v-.07l-.02-.06v-.06l-.04-.07v-.06l-.02-.07v-.06l-.04-.06v-.13s-.01-.07-.01-.07l-.02-.06v-.07l-.02-.07v-.14s-.01-.06-.01-.06l-.02-.07v-.13l-.02-.07v-.21s-.01-.07-.01-.07l-.02-.06v-.11l-.02-.07v-.06l-.02-.07v-.07l-.02-.06v-.07l-.02-.06v-.06l-.02-.07-.02-.06-.02-.06v-.06l-.02-.06-.02-.06-.02-.06-.02-.06-.02-.06-.02-.06-.02-.06-.04-.06-.02-.06-.02-.06-.04-.06-.02-.06-.02-.06-.04-.06-.02-.06-.04-.06-.02-.06-.04-.06-.02-.06-.04-.06-.04-.06-.04-.06-.02-.06-.04-.06-.04-.06-.04-.06-.04-.06-.04-.06-.02-.06-.04-.06-.04-.06-.04-.06-.04-.05-.04-.06-.04-.06-.04-.06-.04-.05-.04-.06-.04-.06-.04-.05-.04-.06-.04-.06-.04-.06-.02-.06-.04-.06-.04-.06-.04-.06-.04-.06-.04-.06v-.29l-.26-2.68-.94-2.53-1.79-2.08-1.71-2.14-.18-2.68.41-2.67.04-2.69.03-1.85"/>
  <path id="path134" class="cls-1" d="m75.93,566.39l92.42,17.46,8.32,1.57,1.49,4.61,1.98,1.88,2.16,1.74,1.85,1.94,1.04,2.49,2.03,1.9.81,2.49.35,2.73.47,2.67-.12,2.67-.57,2.61,1.25,2.47.24,2.54-.99,2.53.09,2.72.08,2.7.39,2.66.74,2.6.61,2.63-.68,2.36-1.32,2.24v2.7l-.11,2.69v2.67l.6,2.63-.33,2.67-.44,2.68-.08,2.69.15,2.69.58,2.63.84,2.57.9,2.56,1.29,2.37,1.09,2.46.4,2.69.58,2.42,2.39,1.03.2.08h5.6s2.79-.07,2.79-.07l2.79-.13,2.79-.11,2.79-.02h8.36s2.79-.01,2.79-.01l2.79-.06,2.79-.08,2.77-.11,2.8-.07,2.76-.3,2.74-.52,2.68-.71,2.53-1.15,2.6-.98,2.76-.27,2.79-.17,2.79-.11h5.58s5.86-.01,5.86-.01l1.72.45.59.15-.07,2.88.6,2.63.68,2.62.61,2.62.33,2.68.28,2.68.45,2.66.31,2.68.04,2.69-.12,2.69-.27,2.67.2,2.68.4,2.68.4,2.67.61,2.62.98,2.53,1.03,2.5,1.09,2.49,1.2,2.43,1.48,2.29,1.29,2.37.8,2.59.85,2.56.74,2.6.73,2.6.58,1.81.25.77.64,2.62.45,2.67.72,2.57,1.3,2.41.66,2.59,1.61,2.18,1.74,2.14,1.62,2.2,1.65,2.17,1.69,2.14,1.66,2.17,1.64,2.17,21.92-7.66,1.61,1.52,2.22,2.09,2.07,1.82,2.07,1.82,1.94,1.94,1.96,1.91,1.98,1.9,2.08,1.79,2.22,1.64,2.42,1.55,1.2,2.18.14,2.73.06,2.75.21,2.68.81,2.59,1.02,2.52,1.32,2.37,1.98,1.9,2.13,1.76,2.27,1.57,1.96,1.9,1.84,2.08.8,2.46-.11,2.74.06,2.69.15,2.69.35,2.68,1,2.5,1.39,2.35,1.09,2.48,1.06,2.49,1.15,2.46,1.25,2.41,1.23,2.42,1.12,2.48.94,2.53.8,2.59.53,2.65.53,2.65.6,2.63.46,2.66.3,2.68.44,2.67.48,2.66.44,2.44-115.02-.07-89.74-.24-40.22-.17-126.22-.71.24-26.82.32-35.34.31-35.34.17-17.87,6.32-16.38,12.78-33.11,12.75-33.12,12.73-33.12,7.89-20.56,4.83-12.58,12.69-33.13.67-1.71"/>
  <g id="g140">
    <path id="path142" class="cls-1" d="m846.43,741.94l-.64,32.04-5.83.67,6.81,8.41-4.48,5.44-8.28.99-.04,6.09-.06,12.2-.31,62.16-37.16,1.75-1.5,30.81h.06l-.73,6.95,13.06,1.78-.06.4-1.28,10.72-12.33-.77-.96,39.25-6.59-1-2.82.06-2.59-.91-2.27-1.59-2.34-1.48-2.44-1.33-2.46-1.3-2.11-1.76-2.22-1.58-2.54-.57-.18-.04h-2.82l-2.75-.46h-2.76l-2.65.91-1.48.67-.13-7.85-.44-27.84-.4-25.71-2.23.04-8.73-.05-16.81-.09-22.34-.12h-2.31l-11.82-.08-25.91-.17-3.41-.02-4.7-.04-13.43-.09v.93l.08,15.44-3.72.32-1.98,1.83-2.09,1.76-2.59,1.04-2.75.52-2.8-.12-2.72-.6-2.69-.83-2.03-1.82-.92-1.48-.54-.86-2.56.07-2.24,1.69-2.65.81-2.79.06h-.4l-.04.04-.05.02h-.04l-.04.04h-.04l-.05.04h-.04l-.04.02-.04.02h-.05l-.04.04h-.04l-.05.04h-.04l-.04.04h-.05l-.04.05h-.04l-.05.04h-.04l-.05.02h-.04l-.04.02h-.05l-.04.02h-.05l-.04.02h-.04l-.05.02h-.05l-.04.02h-.09s-.05.01-.05.01h-.05s-.25.01-.25.01h-.05s-1.63.01-1.63.01h-.05s-.21-.01-.21-.01l-.05-.02h-.08l-.05-.02h-.04l-.04-.02h-.05l-.04-.02h-.05l-.05-.02h-.04l-.05-.02h-.04l-.05-.02h-.05l-.04-.02h-.05l-.04-.02h-.05l-.04-.02h-.05l-.04-.02h-.05l-.04-.02h-.09s-.05-.01-.05-.01l-.05-.02h-.28l-.05.02h-.04l-.05.02h-.04l-.05.02h-.04l-.04.02-.05.02h-.04l-.05.04-.04.02-.05.02h-.04l-.04.02h-.05l-.05.04h-.04l-.04.02h-.05l-.05.02h-.04l-.05.02h-.04l-.05.02h-.04l-.05.02h-.05l-.04.02h-.09s-.31.01-.31.01h-.04s-.52-.01-.52-.01h-.05s-.08-.01-.08-.01h-.04s-.13-.01-.13-.01h-.05s-.08-.01-.08-.01h-.05s-.17-.01-.17-.01h-.05s-.08-.01-.08-.01l-.05-.02h-.12s-.05-.01-.05-.01h-.04s-.05-.01-.05-.01l-.05-.02h-.09s-.04-.01-.04-.01l-.05-.02h-.05l-.04-.02h-.05l-.04-.02h-.05l-.04-.02h-.04l-.05-.02h-.05l-.04-.02h-.05l-.04-.02h-.05l-.04-.02h-.05l-.05-.02h-.04l-.05-.02h-.04l-.05-.02h-.05l-.04-.02h-.04l-.05-.02h-.05l-.04-.02h-.05l-.04-.02h-.09s-.21-.01-.21-.01l-.04.02h-.05l-.04.04-.04.02-.05.02-.05.02-.04.02-.04.02-.04.02-.05.02h-.04l-.04.02h-.09s-.12.01-.12.01l-.04-.02h-.04l-.04-.02-.05-.02h-.04l-.04-.04-.04-.02-.04-.02-.04-.02-.04-.02-.04-.02-.05-.02-.04-.02-.04-.02-.04-.02-.04-.02-.04-.02-.04-.02-.04-.02-.04-.02-.05-.02-.04-.02-.04-.02-.04-.02-.04-.02-.04-.02-.04-.02-.05-.02-.04-.02h-.04l-.04-.04-.05-.02h-.04l-.04-.04h-.05l-.04-.02h-.05l-.04-.02h-.05l-.04-.02h-.05l-.04-.02h-.05l-.04-.02h-.05l-.05-.02h-.04l-.05-.02h-.04l-.05-.02h-.04l-.04-.02h-.05l-.04-.04h-.04l-.05-.02-.04-.02-.04-.02h-.04l-.04-.04-.04-.02-.04-.02-.04-.02h-.05l-.04-.04-.04-.02-.04-.02-.04-.02-.04-.02-.04-.02-.04-.02-.04-.02-.04-.02-.04-.02-.05-.04-1.43.72-3.71.98,2.73-8.18-.05-5.75-.04-4.65-.59-9.06,1.57-11.29,1.07-10.62,1.75-8.12,3.42-7.89.55-.7,1.84-2.04,1.35-2.36.3-1.3.32-1.35-.31-2.67-1.45-2.31-2.29-1.55-2.21-1.55-2.73-.87-1.58-2.11.24-2.63.8-2.62.44-2.62-.8-2.61-.6-2.63-.54-2.65-.53-2.65-.47-2.66-.22-2.68v-2.7l.04-.79.05-1.91.09-2.7-.22-2.69-.41-2.68-.66-2.61-.84-2.57-.9-2.55-.86-2.42-.05-.13-.8-2.48-.02-.09-.72-2.61-.52-2.65-.27-2.68-.08-2.69v-2.7l-.07-2.7v-2.69l.26-2.68.47-2.66.3-2.68.2-2.69.35-2.68.4-2.67.34-2.68.3-2.73-.43-2.59-.74-1.19-.74-1.16-.76-2.54-.09-2.73-.12-2.7v-2.7l.08-2.69.11-2.7.12-2.69.15-2.69.07-2.69-.05-2.7v-2.7l.08-2.69-.48-2.66-.09-2.65.66-2.65.37-2.67.28-2.26h3.14l2.75.33,2.5,1.17,2.14,1.72,1.58,2.23,1.57,2.23,1.5,2.28,2.17,1.68,2.7.7,2.75.37,2.79.05,2.79.15,2.75.44,2.76.33,2.7.64,2.63.9,2.67.77,2.75.27,2.7.63,2.69.7,2.63.91,2.7.65,2.47,1.25,2.1,1.76,2.22,1.64,2.48,1.2,2.73.6,2.56,1.06,2.48,1.23,2.46,1.29,2.43,1.32,2.39,1.43,2.56.97,2.76.48,2.75.41,2.76.37,2.77.27,2.79-.06,2.79-.05,2.79.13,2.77.15h2.79l2.77.34,2.73.58,2.69.71,2.61.92,2.42,1.29,2.75.4,2.77-.21,2.69-.72,2.39-.72.28-.08,2.79-.02,2.76-.31,2.75-.41,2.79.17,2.76.39,2.35.47.39.08,2.68.74,2.74.37,2.76-.45,2.26-.89.32-.13,2.41-1.37,2.44-1.3,2.52-1.19,2.7-.47,2.8-.17h2.79l2.82-.06,2.56-.98,1.98-1.87,1.22-2.46,1-2.52.92-2.55,1.18-2.42,1.41-2.37,2.35-1.42,2.74-.19.68.11,2.09.31,2.72.6,2.74.51,2.74.45,2.75.51,2.72.58,2.72.63,2.67.78,2.55.92.07.02,2.66.8,2.75.3,2.8.04.48,17.62.54,19.99,38.38-1.11"/>
  </g>
  <path id="path158" class="cls-1" d="m375.45,866.67l.04.21.55,2.65.57,2.63.58,2.65.51,2.65.17,2.69.04,2.69-.05,2.69-.12,2.69.2,2.68.33,2.68.09,2.69-.02,2.69.02,2.69.24,2.69.22,2.68-.12,2.7-.5,2.65-.92,2.55-.61,2.62-.34,2.68-.6,2.62-.72,2.6-.87,2.56-1.03,2.52-.99,2.53-1.33,2.05-2.08.07-2.8.11-2.76.4-2.72.67-2.68.81-2.6,1.04-2.62.92-2.76.41-2.77.4-2.67.8-2.66.87-2.7.76-2.72.67-2.75.37h-5.61s-2.81-.01-2.81-.01l-2.8.15-2.73.59-2.66.89-2.55,1.11-2.37,1.43-2.23,1.64-1.98,1.89-1.83,2.05-1.69,2.15-1.51,2.27-1.41,2.34-1.33,2.37-1.26,2.41-1.15,2.47-1.17,2.44-1.36,2.36-1.33,2.37-1.22,2.42-1.23,2.42-1.38,2.34-1.52,2.27-1.62,2.21-1.78,2.09-2.07,1.79-2.28,1.58-.27.18-2.03,1.36-2.33,1.5-2.31,1.52-2.28,1.57-2.33,1.5-2.36,1.45-2.41,1.38-2.48,1.26-2.54,1.18-2.49,1.24-2.13,1.7-2.14,1.76-2.03,1.83-1.79,2.08-1.65,2.18-1.51,2.28-1.36,2.36-1.03,2.54-1.48,2.26-1.2,1.29-.68.73-2.04,1.84-2.26,1.61-2.27,1.61-2.17,1.71-2.23,1.63-2.41,1.39-2.36,1.45-2.31,1.57-2.1,1.75-.9,1.41-.58.9-1.64,2.23-.51,2.59.2,2.72.44,2.67-52.78-2.1-1.62-13.37-27.84,1.1-1.46,38.39-1.39.18-4.84.63-6.49,27.95-49.77-.86-1.12-3.11-67.14-3.05.12-13.38.32-35.34.32-35.34.32-35.34.32-35.34.27-30.02.05-5.31.32-35.34.08-8.53,126.22.71,40.22.17,89.74.24,115,.06"/>
  <path id="path160" class="cls-1" d="m1089.38,901.72l.47.09,6.07,56.14,13.71,9.85,9.64,6.92-6.38,37.15,1.62,2.24.66,2.55.91,2.42,2.05,1.89,2.04,1.83,1.7,2.16,1.39,2.34,1.12,2.48.77,2.6,1.31,2.39,2.07,1.82,2.13,1.78,1.84,2.07.08.54.33,2.07.12,2.72.43,2.66.66,2.82,2.26.79,2.99-.19,2.83-.18,2.8-.11,2.8.31,2.93.54,1.45,1.9.18,2.85-.28,2.68-.3,2.68,1.13,3.34,16.72.22.11.89,1.75,15.07,4.91,1.07-.45,8.09,4.76-.17,9.45,29.38.48,2.66.58,2.66,1.18,2.35,2.3,1.59,2.23,1.65.9,2.5.43,2.68.27,2.68.12,2.7.55,2.66,2.05,1.71,2.55,1.23,2.15,1.69.68,2.62.05,2.7-.09.38-.6,2.28.21,2.61.91,2.6,1.03,2.47,2.11,1.82,2.03,1.88,1.28,2.39.81,2.59.61,2.63.52,2.66.58,2.63,1.55,2.24,2.46,1.3,2.5,1.24,2.29,1.46-.44,2.72.41,2.44,2.56,1.35,2.62,1.02,2.65.94,2.53,1.18,2.42,1.38,2.4,1.42,2.46,1.33,2.21,1.66,2.14,1.77,2.11,1.78,2,1.9,1.72,2.14,1.72,2.18,2.04,1.76,2.74.76,2.75.77,2.17,1.65,1.36,2.35.13,2.73-.34,2.68-.86,2.63-.17,2.61,1.42,2.33,2.87-.04,2.75-.64,2.75-.58h2.82l1.26.05,1.61.04,3.28,2.56-5.1,21.33-28.3-6.97-40.41-.08-.22-11.01-17.7.65-2.2-9.94-21.08.07,3.64-20.68-19.4,8.02-1.5-3.47-13.85,12.59-13.32,12.1-10.93-10.77-6.34-3.59-.18-28.41-9.27.04-22.78,7.62-12.42-1.43-3.15,7.24-23.78,2.88-4.07-.48-.59,5.94-4.2,2.17-.97-1.42-1.64-2.37-2,.04-51.64,1.09-8.02-8.54-24.32,17.03-14.35,10.04-7.17-7.5-1.81,14.1-7.9.48-2.01-25.72-44.09.21h-1.07l-47.06.18-.3-27.61-2.16-31.03-11.49.13-.76-46.87-1.28-2.46-2.5-1.05-2.82-.09-2.69-.64-2.28-1.59-2.61-1-2.74-.65-2.77-.12-2.77.59-2.7.65-1.95,1.97-3.15-.59,2.31-43.87.09-2.75,2-1.35,2.79-.39,1.44.06,1.36.05,2.72.7,3.97-.32-15.78-23.76h.01l28.33-21.81,6.2-4.78,3.61.58,13.52,2.18,2.81-.05,2.81-.05h2.81l2.8.21,2.79.32,2.77.4,2.77.45,2.77-.33,2.5-1.2,2.48-1.22,2.75-.59,2.77-.44.47-.06,2.26-.26,2.05-1.83,2.07-1.9,2.48-1.11,2.83-.09,2.82.25,2.61-.74,2.36-1.46,2.48-1.25,2.53-1.19,2.53-1.16,2.7-.74,2.77-.37,2.79.27,2.8.32,2.8.13,2.81.08,1.67.09,1.17.06,2.77-.14,2.77-.76,2.52-1.22,1.45-2.14.74-2.69.67-2.62.64-2.63.66-2.62.8-2.6.94-2.62.46-.48,1.36-1.39,2.53-1.28,2.66-.97,2.76-.52,2.77-.46,2.77-.41,2.8.05,2.65.89,2.67-.61,2.15-1.77,2.74-.53,2.81-.33,2.62-.9,2.43-1.37,1.95-2,2.27-1.39,2.86-.34,2.61-.78,1.82-2.13.46-1.16.53-1.33.73-2.63.92-2.54.87-2.56.68-2.62,1.1-2.48,2.22-1.52,2.77-.47,2.72-.9.91-2.41.19-2.76-.09-2.7.31-2.68,1.39-2.08,2.86.08,2.74.6,2.55,1.2,1.13,2.16,2.61,1.15,2.68.8,3.01.7.85-1.5.12-.22-.07-2.96.91-2.73,1.43-.67-.22-2.74,16.6-1.72.64-1.97,1.63-5.04,7.86,1.57,3.92.78,27.94-2.16-1.65-10.67-1.7-11.03,36.96,7.04"/>
  <path id="path162" class="cls-1" d="m751.72,950.49l.34,21.99.32,20.63-3.75.05-16.31-.02-20.7-.05-24.55-.06-16.05-.04-3.8-.02-27.65-.13-.06-11.94-.04-7.71-.33-68.36-.07-15.44v-.93l13.41.09,4.7.04,3.41.02,25.91.17,11.82.07h2.31l22.34.13,16.81.09,8.73.05,2.23-.04.4,25.71.44,27.84.13,7.86"/>
  <path id="path164" class="cls-1" d="m639.14,904.84l.33,68.36.04,7.71.06,11.94,27.65.13,3.8.02,16.05.04,24.55.06,20.7.05,16.31.02,3.75-.05-.32-20.63-.34-21.99,1.48-.67,2.65-.9h2.76l2.75.45h2.82l.18.04,2.54.57,2.22,1.58,2.11,1.76,2.46,1.3,2.44,1.33,2.34,1.48,2.27,1.59,2.59.91,2.82-.06,6.59,1-1.13,46.48,4.44,4.83-28.33,21.8h-.01l15.78,23.77-3.97.32-2.72-.7-1.36-.05-1.44-.06-2.79.39-2,1.35-.09,2.75-2.31,43.87,3.15.59,1.95-1.97,2.7-.65,2.77-.59,2.77.12,2.74.65,2.61,1,2.28,1.59,2.69.64,2.82.09,2.5,1.05,1.28,2.46.76,46.87,11.49-.13,2.16,31.03.3,27.61.13,12.88-2.21,1.69-2.69-.94-2.61-1-2.53-1.19-2.66-.93-2.72-.71-2.76-.57-2.65-.94-2.76-.41-2.82-.08v-.91l.13-20.56-47.72.63-.77,24.47-71.21,3.38.52-2.49.7-2.62.66-2.62.73-2.6.86-2.57.93-2.54.98-2.53,1.04-2.52,1.26-2.4.33-.61.93-1.81.86-2.56.67-2.62.68-2.62.72-2.61.72-2.62.32-2.66-.09-2.7-.11-3.7-24.47.66-.73,12.15-6.72,5.11-.18-56.08-12.73-.24-1.75-21.95-.68.58-1.43,1.2-1.97,1.91-1.87,2.02-1.92,1.97-2.21,1.69-2.66.84-2.69.79-2.66.92-2.59,1.06-2.03,1.9-1.3,2.34-.45,2.69v2.69l.19,2.72-1.69,1.85-2.83.24-2.81-.27-2.62.66-1.56,2.27-1.83,1.42-2.77-.3-2.24,1.57-2.43,1.37-2.61-.87-2.5-1.33-2.09-1.76-.87-2.59-2.22-.89-2.02,2.1-2.7.46-2.63,1-2.72.37-2.8-.37-2.55-.94h-.04l-.74-2.61v-2.69l.37-2.68-.02-2.7.04-2.69-.59-2.61-2.6-.98-2.47-1.32-.26-.18-2.02-1.36-2.81-.51-1.98-1.82-.67-2.62-1.94-2.01-2.43.58-1.36,2.39-.4,2.68-1.3,2.27-2.24,1.32-2.83-.34-2.76.28-2.53,1.23-2.5,1.49-2.17,2,1.81.7,3.33.14,2.79-.65,1.55,2.22.31,2.68v2.7l-.11,2.69-.58,2.63-.32,2.68-.81,2.54-1.37,2.36-.41,2.68-1.16,2.41-1.76,2.11-2.15,1.74-2.34,1.51-2.56,1.11-2.63.98-2.76.37-2.82.06-2.81-.05-2.82-.09-2.81.05-2.82-.11-2.81-.07-2.77.34-2.62,1-2.7.76-2.81.27-2.77-.44-2.79-.37-2.81-.2-2.81-.14-2.8-.3-2.77-.48-2.76-.48h-2.82l-2.81-.13-2.81-.15-2.81-.15-2.8-.25-2.81-.21-2.82.05-2.81.05-2.75.5-2.59,1.09-2.69.73-2.77.46-2.82.15-2.48-1.22-2.39-1.44-2.55-1.1-2.77-.5-2.81-.22-2.82.06-2.81.26-2.7.71-2.49,1.26-2.3,1.55-2.43,1.38-2.5,1.23-2.61,1.02-2.7.8-2.3,1.54-2.24,1.59-2.76.11-1.94-1.98-2.66-.94-.81-.18-1.94-.41h-.65l.98-.39,1.74-2.44,1.13-2.47.93-2.54.8-2.59,1.06-2.49,1.07-2.49,1.15-2.47,1.31-2.37,1.61-2.22,1.74-2.13,1.88-2,1.91-1.98,2.04-1.85,2.01-1.88,1.9-1.96,2.61-1.07,2.79.11,1.02.11,1.78.19,2.81.13,2.8-.17,2.8-.33,2.81-.25,2.79-.3,2.8-.35,2.76-.5,2.8-.17,2.81.09,2.74-.22,2.47-1.31,2.03-1.87,1.43-2.3,1.09-2.44.17-2.69-.08-2.69-.26-2.69-.28-2.7.9-2.52,1.39-2.39,2-1.84,1.98-1.92,1.2-2.29.26-3.67-1.91-3.71-1.03-2.81-.14-2.88-.02-2.93-.58-2.34-.09-.37-1.18-7.5,1.13-4.92,2.03-3.24,3.6-5.56,3.46-4.45.87.63,2.75.4,2.79.35,2.76.47,2.82.34,2.16,1.61,1.98,1.98,2.15,1.74,2.63.79,2.82.24,2.8.32,2.8.18,2.81.02,2.82-.08,2.75-.51,2.76-.39,2.77.44,2.55,1.15,1.49,2.18.59,2.66.91,2.56,1.95,1.92,2.68.85,2.79.24,2.72-.78,2.5-1.22,2.4-1.43,2.24-1.62,2.17-1.71,2.35-1.48,2.5-1.24,2.6-1.02,2.5-.89.11-.04.93-2.5.85-2.57.91-2.56.12-2.68.02-2.72-.35-2.65-1.03-2.52-1.51-2.31-.77-2.53.73-2.61,1.46-2.14-.12-2.69,1.18-2.49.22-2.65-.65-2.63-1.1-2.49-.91-2.14-.15-.35-.97-2.54-.77-2.59-.51-2.66-.54-2.65-.83-2.59.27-2.62.55-2.67.37-2.68.41-2.67.78-2.57.98-2.54.89-2.56,1.2-2.43,1.32-2.39,1.42-2.33,1.42-2.33,1.37-2.37,1.11-2.47.78-2.59.59-2.65.08-.45.39-2.21.38-2.67.43-2.67.44-2.67.46-2.66.48-2.66.46-2.29.07-.37.59-2.63.65-2.62.8-2.59.93-2.55.85-2.57,1.23-2.41,1.46-2.3,1.15-2.46.98-2.56,1.1-2.48,1.46-2.24,1.97-1.95,2.17-1.74,2.41-1.36,2.4-1.39,2.22-1.64,2.17-1.71,2.07-1.83,2.15-1.72,2.42-1.41,2.07-1.79,1.57-2.28.55-2.59-.26-2.72-.54-2.65-.32-1.31,3.71-.98,1.43-.72.05.04.04.02.04.02.04.02.04.02.04.02.04.02.04.02.04.02.04.02.04.02h.05l.04.04.04.02.04.02.04.02h.04l.04.04.04.02h.05l.04.02.04.02h.05l.04.02h.04l.05.02h.04l.05.02h.04l.05.02h.05l.04.02h.05l.04.02h.05l.04.02h.05l.04.02h.05l.04.02h.05l.04.04h.04l.05.04.04.02h.04l.04.04.05.02.04.02.04.02.04.02.04.02.04.02.04.02.05.02.04.02.04.02.04.02.04.02.04.02.04.02.04.02.04.02.05.02.04.02.04.02.04.02.04.02.04.02.04.02h.04l.05.04h.04l.04.02h.04l.04.02h.17l.04-.02h.04l.05-.04.04-.02.04-.02.04-.02.05-.02.05-.02.04-.02.04-.02h.05l.04-.02h.09s.21-.01.21-.01l.04.02h.05l.04.02h.05l.05.02h.04l.04.02h.05l.05.02h.04l.05.02h.04l.05.02h.05l.04.02h.05l.04.02h.05l.04.02h.05l.05.02h.04l.04.02h.05l.04.02h.05l.04.02h.05l.05.02h.09s.04.01.04.01l.05.02h.09s.05.01.05.01h.04s.04.01.04.01h.05s.05.01.05.01l.04.02h.18s.17.01.17.01h.05s.08.01.08.01h.05s.13.01.13.01h.04s.09.01.09.01h.04s.52.01.52.01h.05s.3.01.3.01l.04-.02h.05l.05-.02h.04l.05-.02h.04l.05-.02h.04l.05-.02h.05l.04-.02h.04l.05-.04h.05l.04-.02h.04l.05-.04.04-.02.05-.02h.04l.05-.04h.04l.04-.02h.05l.04-.02h.05l.04-.02h.05l.05-.02h.28l.05.02h.08l.04.02h.05l.04.02h.05l.04.02h.05l.04.02h.05l.04.02h.05l.05.02h.04l.05.02h.04l.05.02h.05l.04.02h.05l.04.02h.04l.05.02h.09s.05.01.05.01l.05.02h.3s1.64.01,1.64.01h.04s.26-.01.26-.01h.04s.05-.01.05-.01l.04-.02h.05l.05-.02h.04l.04-.02h.05l.04-.02h.05l.04-.02h.04l.05-.02h.04l.05-.04h.04l.04-.04h.05l.04-.04h.04l.05-.04h.04l.04-.04h.05l.04-.04h.04l.04-.02.05-.02h.04l.04-.04h.04l.05-.04.04-.04h.4l2.79-.06,2.65-.81,2.24-1.69,2.56-.07.54.86.92,1.48,2.03,1.82,2.69.83,2.72.6,2.8.12,2.75-.52,2.59-1.04,2.09-1.76,1.98-1.83,3.73-.34"/>
  <path id="path166" class="cls-1" d="m424.39,944.33l-2.72,39.63,10.59,2.34.55,25.19.74,1.9,9.75,25.16,11.5,23.89,2.21,1.65,1.29,2.42,1.33.94-3.46,4.45-3.6,5.56-2.03,3.24-1.13,4.92,1.18,7.5.09.37.58,2.34.02,2.93.14,2.88,1.03,2.81,1.91,3.71-.26,3.67-1.2,2.29-1.98,1.92-2,1.84-1.39,2.39-.9,2.52.28,2.7.26,2.69.08,2.69-.17,2.69-1.09,2.44-1.43,2.3-2.03,1.87-2.47,1.31-2.74.22-2.81-.09-2.8.17-2.76.5-2.8.35-2.79.3-2.81.25-2.8.33-2.8.17-2.81-.13-1.78-.19-1.02-.11-2.79-.11-2.61,1.07-1.9,1.96-2.01,1.88-2.04,1.85-1.91,1.98-1.88,2-1.74,2.13-1.61,2.22-1.31,2.37-1.15,2.47-1.07,2.49-1.06,2.49-.8,2.59-.93,2.54-1.13,2.47-1.74,2.44-.98.39h-2.18l-2.83.11-2.57-.79-2.43-1.42-2.48-1.29-2.41-1.39-2.1-1.82-2.6-.96-2.54-1.1-2.23-1.68-2.15-1.74-2.33-1.52-2.49-1.24-2.62-1-2.61-1-2.65-.96-2.61-.94-2.82.05-2.76.55-2.61,1.02-2.59,1.09-2.62.99-2.68.8-2.72.83-2.69.85-2.43,1.25-1.94,2-2.13,1.77-2.05,1.83-1.94,1.96-2.14,1.77-2.34,1.48-2.55,1.12-2.63.98-2.67.84-2.74.64-2.73.65-2.44,1.35-2.35,1.49-2.62,1.03-2.55,1.09-2.04,1.85-1.94,2-2.11,1.85-2.42,1.18h-2.87l-2.8-.28-2.81-.05-1.26.04-1.55.05-1.1.02-1.71.04-2.8.28-2.76.45-2.82-.05-2.8.18h-.04l-2.72.57-2.79.38-2.86.18-2.82.09h-2.82l-2.81-.18-2.8-.37-2.8-.24-2.81-.14-2.8-.33-2.82-.11-2.69-.38-2.41-1.46-2.63-.9-2.81-.3-2.68-.84-2.76-.5-2.81-.17-2.8-.28-2.79-.4-2.81-.11-2.82-.05-2.3-1.29-1-2.49-.07-2.73-.35-2.77-1.13-2.24-2.76-.92-2.72-.72-2.77-.38h-.13l-2.69-.11-2.81.07-2.8.26-2.8.32-2.79.37-2.77.44-2.77.51-2.77.46-2.8.33h-2.82l-2.81-.17-2.81-.24-2.81-.11-2.82-.09-2.79-.11-2.81-.11-2.81-.19-2.81-.17-2.82-.06-2.81-.02-2.82.04-2.81.09-2.82.07-2.82-.05-2.8.26-2.8.5-2.56-.37-.94-2.67-2.47-.94-2.82.04-2.81-.15-2.82-.04-2.81.14-2.81.06-2.81-.05-2.92-.3-1.82,4.25-.33.77-5.29-2.75-5.96-2.86-1.06-1.48-.89-1.35-.93-1.23-1.06-.94-1.29-.45h-.26l-1.3.08-1.64.38-1.54.41-1.43.61-1.42.67-2.07.44-.92.06h-1.55l-1.55-.08-1.56-.12-1.56-.13-.61-.05-.93-.07-1.55-.12-1.55-.13-1.55-.15-1.55-.15-1.55-.17-1.55-.14-1.55-.14-1.55-.13-1.55-.14-1.55-.13-1.55-.12-1.55-.09-1.5-.05h-.05l-1.49-.05-1.55-.04h-1.56l-1.55-.02h-3.09l-1.55.04-1.55.04-1.66.06.11-11.5.32-35.34.2-21.96,67.14,3.05,1.12,3.11,49.77.86,6.49-27.95,4.84-.63,1.39-.18,1.46-38.39,27.84-1.1,1.62,13.37,52.78,2.1-.44-2.67-.2-2.72.51-2.59,1.64-2.23.58-.9.9-1.41,2.1-1.75,2.31-1.57,2.36-1.45,2.41-1.39,2.23-1.63,2.17-1.71,2.27-1.61,2.26-1.61,2.04-1.84.68-.73,1.2-1.29,1.48-2.26,1.03-2.54,1.36-2.36,1.51-2.28,1.65-2.18,1.79-2.08,2.03-1.83,2.14-1.76,2.13-1.7,2.49-1.24,2.54-1.18,2.48-1.26,2.41-1.38,2.36-1.45,2.33-1.5,2.28-1.57,2.31-1.52,2.33-1.5,2.03-1.36.27-.18,2.28-1.58,2.07-1.79,1.78-2.09,1.62-2.21,1.52-2.27,1.38-2.34,1.23-2.42,1.22-2.42,1.33-2.37,1.36-2.36,1.17-2.44,1.15-2.47,1.26-2.41,1.33-2.37,1.41-2.34,1.51-2.27,1.69-2.15,1.83-2.05,1.98-1.89,2.23-1.64,2.37-1.43,2.55-1.11,2.66-.89,2.73-.59,2.8-.14h2.81l2.81.05h2.8l2.75-.38,2.72-.67,2.7-.76,2.66-.87,2.67-.8,2.77-.4,2.76-.41,2.62-.92,2.6-1.04,2.68-.81,2.72-.67,2.76-.4,2.8-.11,2.08-.07.72-.02h2.81l2.8.13,2.79.21,2.79.33,2.76.37,2.77.4,2.76.46,2.75.53,2.68.78,2.66.83,2.73.63,2.74.6,2.72.61,2.74.61,2.7.71,2.61,1.03,2.68.68,2.79.21,2.81.07h.78"/>
  <g id="g178">
    <path id="path180" class="cls-1" d="m665.93,1230.75l-.04.14-.19,2.69v2.7l.33,2.67.53,2.66.28,2.68.05,2.7-.28,2.68-.57,2.65-.66,2.62-1.02,2.52-.86,2.56-.33,2.68-.26,2.68-.58,2.63-.67,2.62-.54,2.65-.5,2.66-.55,2.65-.32,2.67-.17,2.69-.07,2.69.09,2.7.08,2.69.07,2.69v2.69l-.02,1.96v.73l-.02,2.69-.05,2.69-.02,2.7-.04,2.69-6.55,5.68,2.4,64.35,7.07-.24,11.18,3.5-.85,29.89-28.1-6.02-3.48,10.88-39.78-4.32-6.45-.71-2.94.05-2.43.9-1.35,2.48-.77,2.6-.3,2.7v2.69l.94,2.53.83,2.57.5,2.67.28,2.69-.08,2.69-.48,2.67-.45,2.66-.54,2.63-.9,2.61-1.33,2.35-2.07,1.84-2.46,1.43-2.68.81-2.88.17-2.9-.15-2.31,1.31-2.18,1.84-1.9,2.1-1.43,2.26-.65,2.61-.19,1.35-.21,1.41-.68,2.62-.87,2.57-1.16,2.46-1.36,2.37-1.31,2.39-1.12,2.48-1.33,2.39-1.35,2.37-1.12,2.48-.66,2.61-.52,2.67-.5,2.65-.46,2.67-.43,2.67-.48,2.65-.61,2.63-.58,2.63-.32,2.68-.3,2.68-.55,2.65-.32,2.69-.57,2.62-.71,1.95-.24.66-1.43.64-1.05.48-2.8.59-2.8.47-2.8.41-2.82-.34-2.82-.3-2.82-.3-2.8-.43-2.76-.64-2.83-.09-2.85.09-2.83.04-2.81-.41-2.81-.13-2.47.14-.38.02-2.83.14-2.83.17-2.83.22-2.79.47-2.83.07-2.83-.28-2.77-.52-2.72-.81-2.49-1.28-2.63-.98-2.72-.8-2.75-.65-2.8-.47-2.8-.44-4.06-.11-74.82-5.1.4-.91.47-1.18.46-1.17.5-1.17.53-1.16.76-1,.91-.9.63-1.1.51-1.17.43-1.23.33-1.26-.12-1.17-.59-1.09-.83-1.02-.91-.97-.92-.91-.99-.87-1.02-.86-.99-.85-.93-.86-.83-.87.58-1.1.54-1.15.63-1.1.94-.87.87-.94.96-.89.51-1.07.09-1.28.45-1.17.11-1.33-.02-1.28-.63-.66-1.42-.02-1.29-.31h-1.31l-1.32.05-1.31.02-1.25-.21-1.1-.73-.91-.89-.61-1.11-.63-1.1-.57-1.16-.45-1.19.54-1.06.7-1.07.72-1.05.83-.98.89-.93.92-.94,1.06-.66,1.38-.07.92-.73.55-1.2.51-1.19.2-1.19-.65-1.12-.93-.87-1.03-.81-1.11-.65-1.25-.39-1.31-.21-1.32.05-1.25-.31-1.19-.54-1.2-.55-1.16-.61-.72-.99-.54-1.17-.74-1.04-.64-1.05-.25-1.24-.15-1.25-.06-1.26-.05-1.24-.05-1.25.19-1.25.25-1.23-.02-1.26v-.5l-.02-.78-.48-1.1-.93-.93-.86-1.13-.67-.89-.41-1.19-.24-1.23-.06-1.25.04-1.26v-1.24l.05-1.26.08-1.25.18-1.24.37-1.19.53-1.16.44-1.18.11-.45.17-.77.22-1.25.09-1.24.18-1.24.2-1.24.35-1.2.48-1.17.54-1.15.59-1.12.66-1.07.73-1.03.77-1.02.79-1,1.05-.79.84-.92.52-1.61.13-.97-.72-.53-1.54.07-1.35-.13-.5-1.09.05-1.29.54-1.15.68-1.06.53-1.16.38-1.19.19-1.24.04-1.26-.2-1.23-.33-1.2-.3-1.23-.26-1.23-.26-1.22-.21-1.23-.2-1.24-.13-1.23-.04-1.26-.07-1.24-.17-1.29-.34-1.2-.78-.96-1.04-.8-1.11-.72-1.17-.54-1.16-.46-.84-3.31-1.11-2.48-.54-2.65-.97-2.52-.65-2.62-.66-2.62-.63-2.62-.54-2.63-.78-2.6-.39-2.68-.17-2.69v-.13l-.12-2.56-.06-2.69v-2.7l-.25-2.68-.22-2.69-.05-2.69.08-2.7.18-2.69.11-2.69.22-2.68.57-2.67.34-2.52.02-.15-.12-.54-.46-2.07-1.04-2.54-.68-2.57v-2.69l.18-2.7.35-2.68.59-2.63.45-2.66.12-2.7,1.03-2.4-.07-2.72.02-2.69.15-2.69.21-2.69.24-2.68.15-2.69.45-2.66.47-2.66.43-2.67.54-2.65.32-2.68.35-2.67.77-2.6.77-2.08.17-.47.51-1.77.24-.83.35-2.7-.28-2.62-1.3-2.42-.96-2.5.64-2.63.31-2.67-.84-2.56-1.04-2.52-.25-2.67.07-.63.25-2.07.8-2.57,1.45-2.3,1.31-2.37.4-2.67v-2.69l-.19-2.69-.15-2.69-.14-2.69-.14-2.69-.14-2.69.04-2.69.19-2.69.25-2.69.45-2.67.71-2.63,2.1-1.55,1.82-2.04,2.28-1.56,2.56-1.13,1.62-.65h.65l1.94.41.81.18,2.66.94,1.94,1.98,2.76-.11,2.24-1.59,2.3-1.54,2.7-.8,2.61-1.02,2.5-1.23,2.43-1.38,2.3-1.55,2.49-1.26,2.7-.71,2.81-.26,2.82-.06,2.81.22,2.77.5,2.55,1.1,2.39,1.44,2.48,1.22,2.82-.15,2.77-.46,2.69-.73,2.59-1.09,2.75-.5,2.81-.05,2.82-.05,2.81.21,2.8.25,2.81.15,2.81.15,2.81.14h2.82l2.76.47,2.77.48,2.8.3,2.81.14,2.81.2,2.79.37,2.77.44,2.81-.27,2.7-.76,2.62-1,2.77-.34,2.81.07,2.82.11,2.81-.05,2.82.09,2.81.05,2.82-.06,2.76-.37,2.63-.98,2.56-1.11,2.34-1.51,2.15-1.74,1.76-2.11,1.16-2.41.41-2.68,1.37-2.36.81-2.54.32-2.68.58-2.63.12-2.69v-2.7l-.32-2.68-1.55-2.22-2.79.65-3.33-.14-1.81-.7,2.17-2,2.5-1.49,2.53-1.23,2.76-.28,2.83.34,2.24-1.32,1.3-2.27.4-2.68,1.36-2.39,2.43-.58,1.94,2.01.67,2.62,1.98,1.82,2.81.51,2.02,1.36.26.18,2.47,1.32,2.6.98.59,2.61-.04,2.69.02,2.7-.35,2.68v2.69l.73,2.6h.04l2.55.96,2.8.37,2.72-.37,2.63-1,2.7-.46,2.02-2.1,2.22.89.87,2.59,2.09,1.76,2.5,1.33,2.61.87,2.43-1.37,2.24-1.57,2.77.3,1.83-1.42,1.56-2.27,2.62-.66,2.81.27,2.83-.24,1.69-1.85-.2-2.72v-2.69l.46-2.69,1.3-2.34,2.03-1.9,2.59-1.06,2.66-.92,2.69-.79,2.66-.84,2.21-1.69,1.92-1.97,1.87-2.02,1.97-1.91,1.43-1.2.68-.58,1.75,21.95,12.73.24.18,56.08,6.72-5.11.73-12.15,24.47-.66.11,3.7.09,2.7-.32,2.66-.72,2.62-.72,2.61-.68,2.62-.67,2.62-.86,2.56-.93,1.81-.33.61-1.26,2.4-1.04,2.52-.98,2.53-.93,2.54-.86,2.57-.73,2.6-.66,2.62-.7,2.62-.52,2.47"/>
  </g>
  <path id="path188" class="cls-1" d="m380.72,1178.51l-1.62.65-2.56,1.13-2.28,1.56-1.82,2.04-2.1,1.55-.71,2.63-.45,2.67-.25,2.69-.19,2.69-.04,2.69.14,2.69.14,2.69.14,2.69.15,2.69.2,2.69v2.69l-.41,2.67-1.31,2.37-1.45,2.3-.8,2.57-.25,2.07-.07.63.25,2.67,1.04,2.52.84,2.56-.31,2.67-.64,2.63.96,2.5,1.3,2.42.28,2.62-.35,2.7-.24.83-.51,1.77-.17.47-.77,2.08-.77,2.6-.35,2.67-.32,2.68-.54,2.65-.43,2.67-.47,2.66-.45,2.66-.15,2.69-.24,2.68-.21,2.69-.15,2.69-.02,2.69.07,2.72-1.03,2.4-.12,2.7-.45,2.66-.59,2.63-.35,2.68-.17,2.7v2.69l.67,2.57,1.04,2.54.46,2.07.12.54-.02.15-.34,2.52-.57,2.67-.22,2.68-.11,2.69-.18,2.69-.08,2.7.05,2.69.22,2.69.24,2.68v2.7l.07,2.69.12,2.56v.13l.17,2.69.39,2.68.78,2.6.54,2.63.63,2.62.66,2.62.65,2.62.97,2.52.54,2.65,1.11,2.48.84,3.31-.06-.02-1.16-.58-1.13-.66-1-.84-.87-1.06-1-.31-1.22.68-1.17.64-1.13.65-1.13.65-1.15.63-1.16.55-1.22.44-1.33.11-1.35.04-1.24.3-1.04.74-.96.92-1.04.73h-1.32l-1.31-.15-1.28-.31-1.26-.34-1.29-.24-1.31-.13-1.29-.09-1.28.12-1.15-.64-1.17-.61-1.2-.53-1.25-.04-1.04.41-.19.08-1.29.2h-1.32l-.32-.02h-1l-1.3.07-1.28.32-1.26.35-1.25.37-1.25.39-1.23.45-1.29.21-1.31.09-1.31.06-1.31.04h-1.33l-1.2-.41-1.06-.76-1.16-.61-1.24-.41-1.3.11-1.31.08-1.31.08-1.3.11-1.31-.08-1.3-.13-1.31-.12-15.14.5-18.7.6-18.35.57v-2.49l.14-1.24.06-1.25v-1.24l-.04-1.26v-1.25l-.02-1.26-.09-1.25-.15-1.24-.15-1.25-.18-1.23-.25-1.37-.22-1.1-.24-1.23-.2-1.25-.2-1.24v-1.23l.37-1.2.45-1.18.38-1.19.32-1.22.28-1.23.26-1.24-.27-1.17-.45-1.18-.2-1.24-.22-1.23-.24-1.25-.28-1.22-.39-1.19-.46-1.18-.53-1.15-.61-1.09-.94-.89-.79-1-.46-1.16-.22-1.24-.43-1.18-.27-1.24-.67-1.5-.55-.65-.84-.98-.72-1.06-.85-.93-1.12-.65-.91-.96-.74-1.05-.24-1.16.2-1.28.08-.59.08-.67.04-1.25.04-1.25.11-1.24.31-1.22.35-1.2.15-1.24.08-1.25.18-1.24.38-1.2.2-1.24.14-1.24.67-1.07.38-1.22.05-1.24-.28-1.23-.41-1.2-.64-1.1-.46-1.17-.22-1.24.02-1.26.07-1.28-.12-1.2-.84-.97-.61-1.05.09-1.29-.2-1.19-.86-.99-.98-.85-.74-.97-.43-1.18-.71-1.02-.25-1.24-.21-1.25.12-1.22.8-.99.94-.87.21-1.22-.15-1.26-.43-1.17-.71-1.04-.78-1.03-.73-1.04-.59-1.12-.19-.61-.19-.59-.24-1.24-.74-1.02-.92-.9-.96-.86-.9-.91-.85-.96-.84-.97-.89-.92-1.02-.8-1.07-.76-.9-.89-.7-1.04-.61-1.1-.59-1.12-.57-1.15-.58-1.13-.61-1.11-.7-1.06-.81-.99-.91-.91-1-.79-1.11-.67-1.11-.66-1.11-.66-1.12-.65-1.12-.65-1.12-.65-1.12-.65-1.12-.65-.67-.39-.45-.26-1.12-.65-7.23-3.61-29.58-12.67-8.09-4.19-32.48-16.85-32.45-16.86-21.28-11.08.33-.77,1.82-4.25,2.92.3,2.81.05,2.81-.06,2.81-.14,2.82.04,2.81.15,2.82-.04,2.47.94.94,2.67,2.57.38,2.8-.5,2.8-.26,2.82.05,2.82-.07,2.81-.09,2.82-.04,2.81.02,2.82.06,2.81.17,2.81.19,2.81.11,2.81.11,2.82.09,2.81.11,2.81.24,2.81.17h2.82l2.8-.33,2.77-.46,2.77-.51,2.77-.44,2.79-.37,2.8-.32,2.8-.26,2.81-.07,2.69.09h.13l2.77.39,2.72.72,2.76.92,1.13,2.24.35,2.77.07,2.73,1,2.49,2.3,1.29,2.82.05,2.81.11,2.79.4,2.8.28,2.81.17,2.76.5,2.68.84,2.81.3,2.63.9,2.41,1.46,2.69.38,2.82.11,2.8.33,2.81.14,2.8.24,2.8.37,2.81.19h2.82l2.82-.11,2.81-.17,2.79-.38,2.72-.57h.04l2.8-.18,2.82.05,2.76-.45,2.8-.28,1.71-.04,1.1-.02,1.55-.05,1.26-.04,2.81.05,2.8.3h2.87l2.42-1.19,2.11-1.85,1.94-2,2.04-1.83,2.55-1.09,2.62-1.03,2.35-1.49,2.44-1.35,2.73-.65,2.74-.64,2.67-.84,2.63-.98,2.55-1.12,2.34-1.48,2.14-1.77,1.94-1.96,2.05-1.83,2.13-1.77,1.94-2,2.43-1.25,2.69-.85,2.7-.8,2.68-.8,2.62-.99,2.59-1.09,2.61-1.02,2.76-.55,2.82-.05,2.61.94,2.65.96,2.61,1,2.62,1,2.49,1.24,2.33,1.52,2.15,1.74,2.23,1.68,2.54,1.1,2.6.96,2.1,1.82,2.41,1.39,2.48,1.29,2.43,1.42,2.57.79,2.83-.11,2.19-.06"/>
  <path id="path190" class="cls-1" d="m811.77,1215.99l47.06-.18h1.07l44.09-.21,2.01,25.72,7.9-.48,1.81-14.1,7.17,7.5,14.35-10.04,24.32-17.03,8.02,8.54,51.64-1.09,2-.04,1.64,2.37.97,1.42,4.2-2.17.59-5.94,4.07.48,23.78-2.88,3.15-7.24,12.42,1.43,22.78-7.62,9.27-.04.18,28.41,6.34,3.59,10.93,10.77,13.32-12.1,13.85-12.59,1.5,3.47,19.4-8.02-3.64,20.68-4.36.02-28.01,39.79-9.87-18.18-27.64,8.18-2.42,1.38-2.27,1.66-2.75-.14-2.66-.92-2.69-.83-2.76-.52-2.81.28-2.76.58-2.72.76-2.61.99-2.24,1.65-2.04,1.85-2.14,1.82-2.75-.32-2.74-.73-2.86-.14-2.56.72-2.54,1.19-2.73.11-2.77-.44-2.8.45-2.74.66-2.42,1.39-2.26,1.64-2.52,1.18-2.69.84-2.65.94-2.69.79-3.84,1.1,26.7,35.31,5.07,6.68-21.09,14.25-15.14,10.21-2.61-1.03-2.6-1.07-2.46-1.38-2.49-1.2-2.83.11-2.8-.35-2.81-.15-2.82.17-2.81.33-2.87.18-.64.57-1.35,1.17-1.22,2.43-.74,2.6-.89,2.59-1.69,2.09-2.52,1.24-2.08,1.83-1.65,2.18-1.41,2.33-.98,2.53.09,2.7-.44,4.86-1.56,9.32-5.92,35.18,25.59,4.58-7.89,37.35-9.72,45.92-14.39,67.83,11.43,3.61-6.38,29.67,10.12,23.44-73.23-14.55,8.17-35.85-97.58-5.54-.86.91-.61.66-2.29,1.59-2.56,1.16-2.44,1.37-2.62,1.07-2.61.96-1.65,2.2-1.06,2.46-1.98,1.96-2.3,1.54-2.66.73,2.31-9.32-29.96,13.28,9.97-45.44,13.01-59.54,7.03-32.26,24.17-13.44,8.43-30.8-35.94-9.54.6-14.36-2.81-.34h-.27l-2.55-.15-2.82.13-2.83.09-2.82.05-2.83.04-2.83.04-2.82.11h-2.85l-2.76-.45-2.56-1.18-2.48-1.3-2.5-1.24-2.5-1.28-2.54-1.18-2.66-.92-2.7-.78-2.79-.52-2.79-.43-2.79-.44-2.81-.4-2.81-.26-2.82-.22-2.81-.21-2.83-.11-2.82-.02h-5.66s-2.82-.12-2.82-.12l-1.09-.09-1.72-.15h-2.85l-1.75,2.15-2.3,1.19-2.87-.02-2.83-.08-2.82.12-2.82.15-2.82.24-2.81.37-2.75.64-1.82,2.04-1.16,2.47-1.83,2.02-1.33.63-11.18-3.5-7.07.24-2.4-64.35,6.55-5.68.04-2.69.02-2.7.05-2.69.02-2.69v-2.69l.02-2.69-.07-2.69-.08-2.69-.09-2.7.07-2.69.17-2.69.32-2.67.55-2.65.5-2.66.54-2.65.67-2.62.58-2.63.26-2.68.33-2.68.86-2.56,1.02-2.52.66-2.62.57-2.65.28-2.68-.05-2.7-.28-2.68-.53-2.66-.33-2.67v-2.7l.19-2.69.04-.14,71.21-3.38.77-24.47,47.72-.63-.13,20.56v.91l2.82.08,2.76.41,2.65.94,2.76.57,2.72.71,2.66.93,2.53,1.19,2.61,1,2.69.94,2.21-1.69-.13-12.94"/>
  <path id="path192" class="cls-1" d="m1523.21,1250.34l-10.67,46.65-13.63-.66-14.51,71,33.2,6.62v.06l5.12,1.04v.04l2.5.44-6.45,36.07-1.54-.11v.05l-1.09-.12-6.49-.79v.02l-15.61-2.08-6.91,30.89h-11.04s-21.47,89.63-21.47,89.63l-7.36,30.58-3.32-.3-6.88-.59-2.86-.15-.54,2.49,1.58,4.16-12.22,50.29,7.13,3.31,3.83-9.36,9.72,27.62-22.45-3.19-11.28,52.97,12.12,2.27-10.06,48.08-2.03,1.89-2.13,1.79-2.48,1.35-2.49,1.31-1.85,2.05-1.46,2.31-2.01,1.88-2.31,1.61-2.34,1.55-2.26,1.65-2.31,1.56-2.52,1.29-2.4,1.45-2.37,1.5-2.33,1.55-2.34,1.56-1.5,1.94,2.27,3.09,40.42,7.04.14.02-20.29,37.62-46.22,36.75,32.15,7.42-16.6,20.29-.21,1.03-18.75,90.19-13.66,65.49-13.8,65.11-11.15-.45-11.35,49.2-.19.79-125.54-26.76-.07-3-5.38-1.29-13.41-3.2-2.33,6.05-35.88-10.66-2.92-.86,64.19-269.84.08-.33-64.38-13.38,13-51.75,5.49,1.23,2.35-9.98.4.09,22.42-93.04,7.59.51,9.21-37.68,11.61,1.82.05-.25,3.12-13.66-22.06-5.63,16.6-77.56,2.04-3.83-.93-2.5-1.88-1.94-2.77-.78-2.76-.65-2.81-.34-2.85-.24-2.79-.45-2.46-1.33-2.21-1.7-2.6-1.1-1.65-1.71-.2-.2-.12-2.73-.04-2.7.07-2.69.34-2.68.45-2.67.51-2.65.59-2.65.8-2.57.92-2.56.83-2.57.8-2.6.77-2.6.72-2.62.79-2.57,1.48-2.29,1.5-2.29,1.49-2.29,1.5-2.29-12.86-1.84-5.33-3.96-3.19.76-9.64-18.24,1.63-3.77,9.47-15.41,2.57-4.19,5.15,1.07,2.54,1.1,2.54,1.11,2.56,1.29,2-.67-.13-2.88-.09-2.72.92-2.49,1.5-2.29,10.84,6.4,5.94-18.73,7.58,2.3,1.84-6.99,48.4,9.78,8.35-37.8,16.25-73.79-3.13-4.38,10.79-44.97,5.1-21.33,20.72,2.05,14.37,2.79,51.38,11.83,7.31-25.28,41.9,1.36,3.26-11.56,3.4.08,26.32.59,54.39,11.65-2.07,18.59,19.26,3.74"/>
  <path id="path202" class="cls-1" d="m1277.87,1255.84l-10.79,44.97,3.13,4.38-16.25,73.79-8.35,37.8-48.4-9.78-1.84,6.99-7.58-2.3-5.94,18.73-10.84-6.4-1.5,2.29-.92,2.49.09,2.72.13,2.88-2,.67-2.56-1.29-2.54-1.11-2.54-1.1-5.15-1.07-2.57,4.19-9.47,15.41-1.63,3.77,9.64,18.24,3.19-.76,5.33,3.96,12.86,1.84-1.5,2.29-1.49,2.29-1.5,2.29-1.48,2.29-.79,2.57-.72,2.63-.77,2.6-.8,2.6-.83,2.57-.92,2.56-.8,2.57-.59,2.65-.51,2.65-.45,2.67-.34,2.68-.07,2.69.04,2.7.12,2.73.2.2,1.65,1.71,2.6,1.1,2.21,1.7,2.46,1.33,2.79.45,2.85.24,2.81.34,2.76.65,2.77.78,1.88,1.94.93,2.5-2.04,3.83-16.6,77.56,22.06,5.63-3.12,13.66-.05.25-11.61-1.82-9.21,37.68-7.59-.51-22.42,93.04-.4-.09-2.35,9.98-5.49-1.23-49.02-11.08-5.4,20.39-66.43-14.69v-.04l9.25-40.8,27.28,4.76,21.03-90.99-24.48-4.9-8.63,31.19-45.05-19.32,3.54-21.99-1.42-.27-9.82-1.95-10.12-23.44,6.38-29.67-11.43-3.61,14.39-67.83,9.72-45.92,7.89-37.35-25.59-4.58,5.92-35.18,1.56-9.32.44-4.86-.09-2.7.98-2.53,1.41-2.33,1.65-2.18,2.08-1.83,2.52-1.24,1.69-2.09.89-2.59.74-2.6,1.22-2.43,1.35-1.17.64-.57,2.87-.18,2.81-.33,2.82-.17,2.81.15,2.8.35,2.83-.11,2.49,1.2,2.46,1.38,2.6,1.07,2.61,1.03,15.14-10.21,21.09-14.25-5.07-6.68-26.7-35.31,3.84-1.1,2.69-.79,2.65-.94,2.69-.84,2.52-1.18,2.26-1.64,2.42-1.39,2.74-.66,2.8-.45,2.77.44,2.73-.11,2.54-1.19,2.56-.72,2.86.14,2.74.73,2.75.32,2.14-1.82,2.04-1.85,2.24-1.65,2.61-.99,2.72-.76,2.76-.58,2.81-.28,2.76.52,2.69.83,2.66.92,2.75.14,2.27-1.66,2.42-1.38,27.64-8.18,9.87,18.18,28.01-39.79,4.36-.02,21.08-.07,2.2,9.94,17.7-.65.22,11.01,40.41.08,28.31,6.94"/>
  <path id="path204" class="cls-1" d="m1571.26,1259.58l-5.68,22.25,3.55,9.12,4.36,11.16.67.76,15.14,17.16,5.74,6.49,23.33,15,8.23,5.29,6.84,3.79,5.41,17.58,7.51,24.35,2.05,6.65,1.82,2.49,7.58,10.33-.68,5.74.77,1,.78,1.02.78,1,.77,1,.78,1.03.78,1,.77,1,.77,1.03.76,1.04.74,1.04.76,1.03.81.98.89.93.92.89.94.87.92.9.9.91.91.92.9.92.87.94.84.96.77,1.02.7,1.05.65,1.09.6,1.11.59,1.13.57,1.15.55,1.15.57,1.13.54,1.15.5,1.17.46,1.17.43,1.18.43,1.19.4,1.19.41,1.19.39,1.19.38,1.19.39,1.2.37,1.19.37,1.2.37,1.2.35,1.2.35,1.2.34,1.2.34,1.22.34,1.2.32,1.22.31,1.2.31,1.22.31,1.22.31,1.22.34,1.22.47,1.2.39,1.2.05,1.2-.28,1.22-.51,1.2-.65,1.1-.81.97-.97.85-1.04.79-1.05.8-1.18.71-.87.83-.13,1.3.63,1.1,1.05.66,1.25.51,1.32.4,1.28.24,1.36-.09.77.08.51.06,1.28.51,1.03.78.63,1.05.44,1.22.07.31.2.96.08,1.23-.15,1.26-.31,1.23-.44,1.18-.59,1.15-.7,1.05-.94.89-1.03.78-1.07.74-1.04.76-1.1.78-.77.97-.34,1.32.14,1.22.91.74,1.36.47,1.3.21,1.32-.02,1.33-.13,1.32-.13,1.32-.19,1.31-.19,1.31-.08,1.35.19,1.05.74.31,1.12.13,1.26.02,1.31v1.29l.04,1.26-.02,1.26-.09,1.25-.18,1.23-.28,1.23-.4,1.22-.54,1.13-.76.99-1,.85-1.09.73-1.24.48-1.29.17-1.32.02-1.32-.02-1.83-.02-15.85,9.81-.27,1.22-.28,1.23-.24,1.24-.13,1.25.24,1.23.07,1.23-.22,1.24-.22,1.24-.25,1.23-.19,1.25-.22,1.32.12,1.2.8.86,1.1.72,1.18.68,1.1.76.97.84.96.87,1.03.78,1.06.74,1.11.68,1.16.58,1.18.57,1.2.53,1.22.51,1.23.45,1.24.41,1.29.3,1.3.21,1.31.13,1.32.06h1.32l1.32-.06,1.31-.2,1.31-.25.7-.04.6-.02,1.28.24,1.28.37,1.28.38,1.28.28h1.36l1.38-.12h.39l.91.02,1.09.47.85.99.22.34.5.78.6,1.11.57,1.12.8.99.84.98.86.96.87.94.86.97.81.98.77,1,.68,1.06.55,1.11.47,1.18.41,1.2.43,1.19.37.93.09.25.45,1.17.45,1.18.45,1.18.45,1.19.38,1.25.51,1.13.8.93,1.05.74,1.17.65,1.17.64,1.15.63,1.15.61,1.18.58,1.13.63,1.11.68,1.09.73.97.85.84.97.7,1.1.5,1.15.15,1.23.02,1.28.25,1.22.41,1.2.24,1.28.72.97,1.17.65,1.1.72.67,1.03.39,1.24.17,1.23-.07,1.24-.15,1.28v1.25l.13,1.25.21,1.23.26,1.23.28,1.22.31,1.22.37,1.2.35,1.2.34,1.22.25,1.23-.04,1.25-.15,1.23-.19,1.24-.2,1.25-.15,1.25-.15,1.24-.18,1.24-.25,1.23-.34,1.2-.39,1.2-.39,1.19-.33,1.22-.31,1.22-.32,1.2-.39,1.19-.5,1.17-.57,1.12-.55,1.16-.54,1.19.53,1,.96.97.59,1.11.57,1.15.53,1.15.54,1.13.6,1.12.7,1.06.76,1.03.65,1.09.57,1.15.46,1.17.35,1.22.27,1.23.12,1.24-.09,1.23-.24,1.23-.27,1.03-.39,1.43-.38,1.19-.44,1.19-.41,1.19-.22,1.23-.06,1.28-.32,1.18-.89.96-.91.96-.27,1.16.06,1.28.07,1.29-.19,1.23-.31,1.22-.34,1.2-.34,1.22-.38,1.2-.31,1.22-.11,1.23.04.86v.39l-.14,1.25-.35,1.22-.34,1.22-.13,1.22.38,1.22.22,1.22-.33,1.22-.3,1.23.17,1.2.09.25.31.97.46,1.18.66,1.12.35,1.17-.11,1.23-.27,1.25-.27,1.23-.26,1.25-.28,1.22-.27,1.22-.22,1.24-.14,1.3-.28,1.2-.64,1.05-.83.96-.91.9-.98.89-.98.86-.55.5-.43.39-1.03.79-.97.84-.58,1.13-.66,1.07-.96.85-1.05.79-.96.86-.94.87-1,.81-1,.83-1.03.78-1.11.68-1.18.57-1.19.57-1.05.73-.87.94-.84.99-1.05.78-.99.77-.3,1.23-.37,1.2-.83.96-.99.86-1.02.8-1.1.71-1.03.79-1.02.84-.94.87-.81.97-.65,1.09-.54,1.16-.55,1.16-.6,1.1-.6,1.12-.64,1.1-.68,1.06-.73,1.06-.79.99-.86.96-.92.91-.97.85-1.03.79-1.11.67-1.17.6-1.17.61-1.12.66-1.07.72-1.1.71-1.11.68-1.1.7-1.12.67-1.13.64-1.18.57-2.4.94-18.69,29.39-.53.91-.71,1.23-11.17,19.46-5.95,10.38-1.59,2.79-18.17,27.23-19.97,29.9-4.53,6.77-.93,1.39-1.89,2.81-12.65,18.9-20.03,29.89-5.95,8.88-14.23,20.94-15.32,22.47-4.95,7.27-3.84,5.63-16.45,24.14-20.31,29.76-5.77,8.44-14.41,21.38-12.3,18.24-7.84,11.62-11.5,17.04-8.89,12.68-6.67,9.52-120.41-25.33.19-.79,11.35-49.2,11.15.45,13.8-65.11,13.66-65.49,18.75-90.19.21-1.03,16.6-20.29-32.15-7.42,46.22-36.75,20.29-37.62-.14-.02-40.42-7.04-2.27-3.09,1.5-1.94,2.34-1.56,2.33-1.55,2.37-1.5,2.4-1.45,2.52-1.29,2.31-1.56,2.26-1.65,2.34-1.55,2.31-1.61,2.01-1.88,1.46-2.31,1.85-2.05,2.49-1.31,2.48-1.35,2.13-1.79,2.03-1.89,10.06-48.08-12.12-2.27,11.28-52.97,22.45,3.19-9.72-27.62-3.83,9.36-7.13-3.31,12.22-50.29-1.58-4.16.54-2.49,2.86.15,6.88.59,3.32.3,7.36-30.58,21.47-89.64h11.04l6.91-30.88,15.6,2.08v-.02l6.51.79,1.07.12v-.05l1.55.11,6.45-36.07-2.5-.44v-.04l-5.12-1.04v-.06l-33.2-6.62,14.51-71,13.63.66,10.67-46.65,48.05,9.32"/>
  <g id="g212">
    <path id="path214" class="cls-1" d="m673.71,1384.2l1.33-.63,1.83-2.02,1.16-2.47,1.82-2.04,2.75-.64,2.81-.37,2.82-.24,2.82-.15,2.82-.12,2.83.08,2.87.02,2.3-1.19,1.75-2.14h2.85l1.72.14,1.09.09,2.82.13h8.49s2.83.12,2.83.12l2.81.21,2.82.22,2.81.26,2.81.4,2.79.44,2.79.43,2.79.52,2.7.78,2.66.92,2.54,1.18,2.5,1.28,2.5,1.24,2.48,1.3,2.56,1.18,2.76.45h2.85l2.82-.11,2.83-.04,2.83-.04,2.82-.05,2.83-.09,2.82-.13,2.55.14h.27l2.81.35-.6,14.36,35.94,9.54-8.43,30.8-24.17,13.44-7.03,32.26-13.01,59.54-9.97,45.44,29.96-13.28-2.31,9.32-21.86,87.85-.91,3.65-9.53,38.18-8.11.24,2.14,20,.05.02h.06l.06.05h.06l.07.04.06.02h.07l.06.04.06.02h.07l.07.02h.06l.07.02h.07l.07.02h.2s.2.01.2.01h.07s.06-.01.06-.01h.07s.06-.01.06-.01l.07-.02h.07l.06-.02h.13s.07-.01.07-.01l.07-.02.06-.02h.07l.07-.02h.06l.06-.02h.07l.07-.02h.07l.06-.04h.07l.06-.02h.07l.06-.02h.07l.07-.02.07-.02h.06l.07-.02h.13l.07-.02h.06l.07-.02h.13s.07-.01.07-.01l.07-.02h.06l.07-.02h.13s.07-.01.07-.01l.07-.02h.13l.07-.02h.13s.07-.01.07-.01h.06s.07-.01.07-.01l.07-.02h.13l.07-.02h.2s.07-.01.07-.01h.06s.07-.01.07-.01l.07-.02h.2l.06-.02h.21s.13-.01.13-.01h.07s.06-.01.06-.01l.07-.02h.27s.07-.01.07-.01h.07s.06-.01.06-.01h.07s.07-.01.07-.01h.06s.07-.01.07-.01h.07s.13-.01.13-.01h.07s.07-.01.07-.01h.06s.14-.01.14-.01h.07s.06-.01.06-.01h.07s.07-.01.07-.01h.06s.21-.01.21-.01h.06s.07-.01.07-.01h.07s.2-.01.2-.01h.07s.27-.01.27-.01h.06s.21-.01.21-.01h.06s.41-.01.41-.01h.07s.13-.01.13-.01h.47s.41.01.41.01h.06s.14.01.14.01h.07s.13.01.13.01h.07s.06.01.06.01h.07s.07.01.07.01l.07.02h.13s.06.01.06.01l.07.02h.07l.06.02h.07l.07.02h.06l.07.02h.06l.07.02h.07l.06.02h.14s.06.01.06.01l.07.02h.14s.06.01.06.01h.07s.2.01.2.01h.07s.27.01.27.01h.07s.67.01.67.01h.07s.54-.01.54-.01h.06s1.16-.01,1.16-.01h.07s.2.01.2.01h.07s.06.01.06.01h.07s.13.01.13.01h.07s.07.01.07.01h.07s.06.01.06.01h.07s.07.01.07.01l.06.02h.14s.06.01.06.01l.07.02h.14s.06.01.06.01l.07.02h.13l.07.02h.14s.06.01.06.01l.07.02h.13s.07.01.07.01l.07.02h.13s.07.01.07.01h.07s.06.01.06.01l.07.02h.13s.07.01.07.01h.06s.07.01.07.01h.07s.07.01.07.01h.06s.07.01.07.01h.07s.2.01.2.01h.06s.27.01.27.01h.07s.13.01.13.01h.21s.2-.01.2-.01h.07s.06-.01.06-.01h.07s.14-.01.14-.01h.06s.07-.01.07-.01h.06s.07-.01.07-.01l.07-.02h.2s.07-.01.07-.01l.06-.02h.21s.07-.01.07-.01l.06-.02h.13s.07-.01.07-.01h.07s.07-.01.07-.01l.06-.02h.14s.06-.01.06-.01h.07s.07-.01.07-.01l.06-.02h.14l.06-.02h.21s.13-.01.13-.01h.07s.07-.01.07-.01h.06s.14-.01.14-.01h.07s.2-.01.2-.01h.06s.14-.01.14-.01h.2s.14-.01.14-.01h.06s.27-.01.27-.01h.07s.07-.01.07-.01h.07s.13-.01.13-.01h.07s.06-.01.06-.01h.07s.07-.01.07-.01l.06-.02h.2s.07-.01.07-.01l.07-.02h.07l.06-.02h.07l.06-.02h.07l.07-.02h.06l.07-.02h.07l.06-.02h.07l.06-.02h.07l.06-.02h.07l.06-.02h.07l.07-.04h.07l.06-.02h.07l.06-.02h.07l.06-.02h.05l2.6.6,2.55,1.19,2.5,1.3-4.04,27.78-24.73,1.5,1.44,35.67,4.24-1.16,2.72-.78,2.86.04,2.87.05h2.85l2.82.48,2.72.77,2.5,1.33,2.53,1.26,2.68.94,2.83-.21,2.85.18,2.86.12,2.86-.05h1.38l1.48.02,2.85.2,2.79.58,2.76.72,2.76.7,2.75.73,2.75.73,2.75.73,1.54,133.2.98,83.81-65.38,1.96-.14,86.08-.07,36.5.52,130.76-1.12.71-2.94,1.85-2.67,1-2.76.81-2.77.77-2.72.9-2.69,1-2.7.92-2.8.64-2.87.39-2.81.64-2.74.84-2.76.83-2.79.74-2.75.8-2.68,1.03-2.57,1.23-2.43,1.44-2.36,1.56-2.44,1.44-2.44,1.43-2.39,1.54-2.31,1.61-2.3,1.63-2.29,1.64-2.28,1.67-2.24,1.74-2.31,1.59-2.67,1.02-2.81.63-1.97.35-.87.15-2.85.48-2.86.51-2.86.37-2.89.04-2.9-.12-2.88-.31-2.81-.55-2.66-1.07-2.6-1.22-2.56-1.25-2.55-1.29-2.55-1.29-2.61-1.12-2.82-.61-2.87-.37-2.88.04-2.87.4-2.86.38-2.88.24-2.89.2-2.88.13-2.89-.09-2.89-.24-2.85-.41-2.75-.84-2.83-.54-2.89-.12-2.88.06-2.89.18-2.88.04-2.89-.09-2.88.12-2.9.15-2.88-.02-2.83-.52-2.76-.84-2.67-1.02-2.62-1.16-2.56-1.26-2.49-1.37-2.41-1.49-2.37-1.54-2.41-1.5-2.43-1.44-2.31-1.62-2.31-1.61-2.44-1.45-2.49-1.36-2.57-1.23-2.56-1.25-2.55-1.26-2.6-1.17-2.74-.87-2.8-.67-2.68-.58-.13-.02-2.82-.61-2.88.12-2.88.18-2.89.48-2.73-.57-2.6-1.28-2.61-1.17-2.75-.83-2.72-.92-2.67-1.04-2.47-1.36-2.42-1.48-2.4-1.51-2.49-1.37-2.62-1.12-2.37-1.51-2.17-1.81-1.91-2-1.63-2.24-2.16-1.77-2.28-1.69-2.62-1.05-2.8-.73-2.69-.99-2.6-1.18-2.18-1.74-2.09-1.88-1.65-2.2-1.78-2.07-1.43-1.3-.64-.58-2.3-1.61-2.44-1.44-2.47-1.41-2.54-1.29-2.66-1.06-2.7-.94-2.65-1.07-2.63-1.11-2.7-.94-2.56-1.24-2.3-1.62-2.05-1.9-2.24-1.7-2.36-1.56-2.43-1.44-2.5-1.32-2.57-1.22-2.66-1.06-2.68-.99-2.73-.91-2.66-1.03-2.42-1.49-2.61-1.15-2.54-1.28-2.62-1.17-2.72-.89h-2.86l-2.89.31-2.86.3-2.89.05-2.87-.2-2.79-.73-2.6-1.19-2.55-1.24-2.79-.64-2.89-.32-2.88.02-2.75.78-2.69,1-2.75.81-2.85-.02-2.87-.46-2.85-.43-2.82-.55-2.81-.67-2.74-.86-2.46-1.33-2.2-1.79-2.18-1.76-2.47-1.37-2.62-1.13-2.48-1.38-2.42-1.46-2.42-1.49-2.41-1.48-2.42-1.48-2.46-1.39-2.39-1.51-2.35-1.56-2.34-1.57-2.57-1.2-5.97-2.5.04-18.24v-5.09l-.66-20.5-.32-9.73-1.16-35.31-1.16-35.32-1.15-35.31-.05-1.49-1.06-17.78-.94-16.01-2.09-35.26-.3-5.03-1.79-30.24-1.24-21.03-.83-14.24-2.02-35.27-2.02-35.28.24-2.01.26-1.23.33-1.22.48-1.16,1.09-1.36.57-.63,1.09-.72,1.13-.65.89-.91.76-1.05.77-1.04.98-.83,1.17-.59,1.12-.66.98-.84.92-.9.87-.96.93-.89.66-1.07.6-1.11.46-1.17.53-1.15.78-1,.86-.96.92-.9.91-.91,1.04-.77,1.12-.66,1.13-.67,1.15-.87.98.02.8,1.16.92.91,1.09.71,1.19.55,1.25.44,1.31.21,1.32-.07,1.29-.3,1.25-.41,1.25-.45,1.13-.64.93-.87.86-.97.83-.99.71-1.05.15-1.25.05-1.28-.12-1.23-.47-1.17-.66-1.11-.48-1.17-.4-1.19-.32-1.22-.14-1.24.09-1.25.12-1.25.08-1.25-.37-1.2-.51-1.16-.51-1.16-.4-1.19-.37-1.22-.27-1.23-.06-1.23.35-1.23.61-1.1.8-.99.8-1.03.73-1.04.5-1.15.34-1.22.15-1.23.05-1.26v-2.52l.04-1.25.47-1.17.71-1.07.81-.99.97-.84,1.1-.72,1.06-.76,1.05-.78.9-.9.67-1.07.65-1.1.83-.98.84-.96.67-1.09.52-1.16.32-1.2.27-1.24.26-1.23.37-1.2.34-.81.14-.33.53-1.16.44-.86.13-.28.61-1.13.38-1.18.17-1.23.11-1.25.06-1.26.04-1.26.05-1.26.02-1.25.06-1.26.17-1.25.47-1.18.53-1.16.09-1.26-.18-1.32-.57-1.05-1.05-.7-1.28-.51-1.24-.57-.93-.84-.54-1.3-.24-1.17.31-1.17.9-.9,1.1-.78,1.18-.54,1.25-.46,1.12-.64.86-.97.71-1.06.59-1.11.38-1.2.28-1.22.26-1.23.24-1.23.21-1.23.17-1.24.12-1.25.13-1.25.15-1.24.19-1.23.18-1.25.13-1.26.27-1.22.47-1.17.53-1.15.59-1.15.64-1.09,1.02-1.28.67-.66.94-.87.97-.85.96-.87.94-.89.97-.85,1.03-.77,1.28-.52.44-1.06-.4-1.19-.89-.94-.85-.98-.9-1.03-.59-1.02.83-.99,1.19-.54,1.1-.68,1.2-.53.09-1.22.17-1.26.33-1.22.19-1.23.19-1.24.26-1.22.24-1.23.22-1.23.14-1.25.02-1.25v-1.26l.13-1.23.11-1.25.06-1.26v-1.25l-.06-1.26-.12-1.24-.18-1.23-.22-1.24-.19-1.23-.12-1.24.02-1.26.09-1.25.14-1.24.19-1.25.33-1.2.46-1.17.48-1.18.45-1.18.46-1.18.54-1.15.68-1.06.84-.98.68-1.06.4-1.18.32-1.24.38-1.2.32-1.2.12-1.24.06-1.26.08-1.24.07-1.25.07-1.26.08-1.24v-1.23l.19-1.24.17-1.25.05-1.25-.13-1.24-.09-1.25v-1.26l-.02-1.25v-1.26l-.04-1.26v-1.25l.05-1.26.15-1.25.37-1.19.48-1.17.52-1.16.55-1.12.61-1.12.63-1.09.53-1.16.44-1.18.46-1.18.46-1.18.54-1.15.7-1.06.81-.99.93-.86,1.19-.57,1.18-.57,1.2-.55.98-.68-.05-1.3-.18-1.25-.6-1.11-.78-1-.45-.85-.14-.26-.35-1.2-.04-1.25.12-1.25.13-1.25.15-1.28.11-1.28-.32-1.15-.84-.98-.96-.93-1.03-.84-.93-.87-.38-1.15.07-1.3.19-1.24.44-1.33.46-1.02.66-1.09.97-.83,1.13-.67,1.19-.66.41-1.05-.07-1.31.07-1.25v-1.26l-.07-1.24v-1.26l.22-1.22.38-1.2.3-1.25.4-1.18.99-.78,1.24-.52,1.22-.5,1.23-.44,1.25-.41,1.28-.38.96-.8.83-.99.83-.99,1.02-.8.92-.86.66-1.09.77-1.51.37-.76.12-.24,74.82,5.1,4.06.11,2.8.44,2.8.47,2.75.65,2.72.8,2.63.98,2.49,1.28,2.72.81,2.77.52,2.83.28,2.83-.07,2.79-.47,2.83-.22,2.83-.17,2.83-.14.38-.02,2.47-.14,2.81.13,2.81.41,2.83-.04,2.85-.09,2.83.09,2.76.64,2.8.43,2.82.3,2.82.3,2.82.34,2.8-.41,2.8-.47,2.8-.59,1.05-.48,1.43-.64.24-.66.71-1.95.57-2.62.32-2.69.55-2.65.3-2.68.32-2.68.58-2.63.61-2.63.48-2.65.43-2.67.46-2.67.5-2.65.52-2.67.66-2.61,1.12-2.48,1.35-2.37,1.33-2.39,1.12-2.48,1.31-2.39,1.36-2.37,1.16-2.46.87-2.57.68-2.62.21-1.41.19-1.35.65-2.61,1.43-2.26,1.9-2.1,2.18-1.84,2.31-1.31,2.9.15,2.88-.17,2.68-.81,2.46-1.43,2.07-1.84,1.33-2.35.9-2.61.54-2.63.45-2.66.48-2.67.08-2.69-.28-2.69-.5-2.67-.83-2.57-.93-2.53v-2.69l.28-2.7.77-2.6,1.35-2.48,2.43-.9,2.94-.05,6.45.71,39.78,4.32,3.48-10.88,28.1,6.02.91-29.76"/>
  </g>
  <g id="g230">
    <path id="path232" class="cls-1" d="m975.89,1624.4l9.82,1.95,1.42.27-3.54,21.99,45.05,19.32,8.63-31.19,24.48,4.9-21.03,90.99-27.28-4.76-9.23,40.8v.04l66.42,14.69,5.4-20.39,49.02,11.08-13,51.75,64.38,13.38-.08.33-64.19,269.84-1.41,5.87-142.04-.79-21.87.07-188.26.14.14-86.08,65.38-1.96-.98-83.81-1.54-133.2-2.75-.73-2.75-.73-2.75-.73-2.76-.7-2.76-.72-2.79-.58-2.85-.2h-1.48l-1.38-.02-2.86.05-2.86-.12-2.85-.18-2.83.21-2.68-.94-2.53-1.26-2.5-1.33-2.72-.77-2.82-.47h-2.85l-2.87-.06-2.86-.04-2.72.78-4.24,1.16-1.44-35.67,24.73-1.5,4.04-27.78-2.5-1.3-2.55-1.19-2.6-.61h-.05l-.06.02h-.07l-.06.02h-.07l-.06.04h-.07l-.07.02h-.07l-.06.02h-.07l-.06.02h-.07l-.06.02h-.07l-.06.02h-.07l-.07.02h-.06l-.07.02h-.07l-.06.02h-.07l-.06.02h-.07l-.07.02h-.13s-.07.01-.07.01h-.07s-.06.01-.06.01l-.07.02h-.2s-.07.01-.07.01h-.06s-.14.01-.14.01h-.07s-.06.01-.06.01h-.07s-.27.01-.27.01h-.07s-.13.01-.13.01h-.21s-.13.01-.13.01h-.06s-.21.01-.21.01h-.07s-.13.01-.13.01h-.07s-.06.01-.06.01h-.07s-.13.01-.13.01h-.08s-.06.01-.06.01l-.06.08h-.14l-.07.02h-.2s-.07.01-.07.01l-.06.02h-.14s-.07.01-.07.01h-.06s-.07.01-.07.01l-.06.02h-.14s-.07.01-.07.01h-.07s-.06.01-.06.01l-.07.02h-.2s-.07.01-.07.01l-.07.02h-.19s-.07.01-.07.01h-.07s-.13.01-.13.01h-.07s-.07.01-.07.01h-.07s-.2.01-.2.01h-.2s-.13.01-.13.01h-.07s-.27-.01-.27-.01h-.07s-.2-.01-.2-.01h-.06s-.07-.01-.07-.01h-.07s-.07-.01-.07-.01h-.06s-.07-.01-.07-.01h-.06s-.07-.01-.07-.01l-.07-.02h-.13s-.07-.01-.07-.01h-.07s-.06-.01-.06-.01l-.07-.02h-.13s-.07-.01-.07-.01l-.07-.02h-.13s-.07-.01-.07-.01l-.07-.02h-.13s-.07-.01-.07-.01l-.06-.02h-.14l-.07-.02h-.13s-.07-.01-.07-.01l-.06-.02h-.14s-.06-.01-.06-.01h-.07s-.07-.01-.07-.01h-.07s-.06-.01-.06-.01h-.07s-.13-.01-.13-.01h-.07s-.07-.01-.07-.01h-.04s-.24-.01-.24-.01h-.06s-1.16-.01-1.16-.01h-.07s-.54.01-.54.01h-.07s-.67.01-.67.01h-.07s-.26-.01-.26-.01h-.07s-.2-.01-.2-.01h-.07s-.07-.01-.07-.01l-.07-.02h-.13s-.07-.01-.07-.01l-.06-.02h-.07l-.07-.02h-.06l-.07-.02h-.06l-.07-.02h-.07l-.06-.02h-.07l-.07-.02h-.13s-.06-.01-.06-.01l-.07-.02h-.14s-.06-.01-.06-.01h-.07s-.07-.07-.07-.07h-.27s-.13-.01-.13-.01h-.06s-.41-.01-.41-.01h-.07s-.27-.01-.27-.01h-.34s-.4.01-.4.01h-.07s-.2.01-.2.01h-.07s-.27.01-.27.01h-.06s-.21.01-.21.01h-.06s-.07.01-.07.01h-.07s-.2.01-.2.01h-.07s-.06.01-.06.01h-.07s-.07.01-.07.01h-.07s-.13.01-.13.01h-.07s-.06.01-.06.01h-.07s-.14.01-.14.01h-.06s-.07.01-.07.01h-.07s-.06.01-.06.01h-.07s-.07.01-.07.01h-.07s-.06.01-.06.01h-.07s-.14.01-.14.01l-.06.02h-.2s-.14.01-.14.01h-.07s-.06.01-.06.01l-.07.02h-.2l-.07.02h-.2s-.07.01-.07.01h-.06s-.07.01-.07.01l-.07.02h-.13l-.07.02h-.2s-.06.01-.06.01l-.07.02h-.13s-.07.01-.07.01l-.07.02h-.13l-.07.02h-.06l-.07.02h-.13s-.07.01-.07.01l-.07.02h-.06l-.07.02h-.13s-.07.03-.07.03h-.06l-.07.02h-.07l-.07.02h-.06l-.07.02h-.06l-.07.02-.06.02h-.07l-.07.02h-.07l-.06.02h-.06l-.07.02h-.07l-.06.04h-.07l-.07.02h-.13l-.06.02h-.07l-.07.02h-.13s-.06.01-.06.01h-.07s-.07.01-.07.01h-.07s-.19.01-.19.01h-.07s-.07-.01-.07-.01l-.07-.02h-.07l-.06-.02-.07-.02h-.07l-.06-.02-.06-.02h-.07l-.06-.04-.07-.02h-.06l-.06-.05h-.06l-.05-.04-2.14-20,8.11-.24,9.53-38.18.91-3.65,21.86-87.85,2.66-.73,2.3-1.54,1.98-1.96,1.06-2.46,1.65-2.2,2.61-.96,2.62-1.07,2.44-1.37,2.56-1.16,2.29-1.59.61-.66.86-.91,97.58,5.54-8.17,35.85,73.23,14.64"/>
  </g>
  <g id="g266">
    <path id="path268" class="cls-1" d="m1112.15,2109.39l2.92.86,35.88,10.66,2.33-6.05,13.41,3.2,5.38,1.29.07,3,125.54,26.76,120.41,25.33-12.19,17.33-1.85,2.69-4.9,7.08-18.48,23.91-5.21,7.73-20.11,29.92-2.86,4.26-17.75,25.36-7.39,10.57-12.85,19.29-9.13,13.7-11.06,16.2-5.53,8.08-11.36,17.29-.74,1-.73,1.02-.72,1.03-.77,1-.8.96-.85.94-.91.89-.93.86-.98.84-1,.78-1.04.73-1.07.72-1.09.68-1.09.67-1.11.67-1.11,1.64h-31.76l-15.59-.02h-22.38l-4.78-.02h-1.59l-31.59.02h-37.96l-37.96-.07-11.78-.02-23.27.44-1.58.02.04,1.24.84,35.32.06,2.5.26,10.65-.04,20.58-52.66-5.97.08,1.85.81,18.11-43.93.6-1.88-8.77-96,.63-.37-8.35-3.42-78.36-143.07,2.26-.43-54.03-21.93-14.58,1.97-.35,2.81-.63,2.67-1.02,2.31-1.59,2.24-1.74,2.28-1.67,2.29-1.64,2.3-1.63,2.31-1.61,2.39-1.54,2.44-1.43,2.44-1.44,2.36-1.56,2.43-1.44,2.57-1.23,2.68-1.03,2.75-.8,2.79-.74,2.76-.83,2.74-.84,2.81-.64,2.87-.39,2.8-.64,2.7-.92,2.69-1,2.72-.9,2.77-.77,2.76-.81,2.67-1,2.94-1.85,1.12-.71-.52-130.76.07-36.5,188.26-.14,21.87-.07,142.04.79,1.41-5.88"/>
  </g>
  <g id="g280">
    <path id="path282" class="cls-1" d="m680.61,2316.34l21.93,14.58.43,54.03,143.07-2.26,3.42,78.36.37,8.35,96-.63,1.88,8.77,43.93-.6-.81-18.11-.08-1.85,52.66,5.97v1.58l-.07,34.29v1.04l.17,35.32.04,7.29-.12,28.02-.13,29.56-.04,5.77v1.62l-.17,33.7-.12,23.14-.08,12.17-.12,16.68-36.09-.02h-1.11l-38.23.09-21.43.04-16.81.02h-17.7l-20.55-.02-17.35-.06-20.9-.05-31.21-.12h-16.97l-28.3-.02h-9.86l-19.77-.05-8.62.04-7.78.02-21.74.09-8.73.02-29.65.09-8.58-.02-24.49-.08-13.74-.06-17-.07-21.23-.4-18.69.33h-.52l-6.44.02-38.25.07h-3.63l-34.61.04h-38.23l-38.25-.02-38.23-.07-38.25-.09-35.18-.11-.13-35.12-.13-35.32-.13-35.32-.13-35.32-.08-21.27-.05-14.05-.13-35.19v-.13l-.13-35.33-.13-35.32-.13-35.32-.12-35.33-.13-35.32v-1.52l-.13-33.79-.15-35.21.27-31.59v-.72l.05-17.06,5.97,2.5,2.57,1.2,2.34,1.57,2.35,1.56,2.39,1.51,2.46,1.39,2.42,1.48,2.41,1.48,2.42,1.49,2.42,1.46,2.48,1.38,2.62,1.13,2.47,1.37,2.18,1.76,2.2,1.79,2.46,1.33,2.74.86,2.81.67,2.82.55,2.85.43,2.86.51,2.85.05,2.75-.81,2.69-1,2.75-.78,2.88-.02,2.89.32,2.79.64,2.55,1.24,2.6,1.19,2.79.73,2.87.2,2.89-.05,2.86-.3,2.89-.32h2.86l2.72.9,2.62,1.17,2.54,1.28,2.61,1.15,2.42,1.49,2.66,1.03,2.73.91,2.68.99,2.66,1.06,2.57,1.22,2.5,1.32,2.43,1.44,2.36,1.56,2.24,1.7,2.05,1.9,2.3,1.62,2.56,1.24,2.7.94,2.63,1.11,2.65,1.07,2.7.94,2.66,1.06,2.54,1.29,2.47,1.41,2.44,1.44,2.3,1.61.64.58,1.43,1.3,1.78,2.07,1.65,2.2,2.09,1.88,2.18,1.74,2.6,1.18,2.69.99,2.8.73,2.62,1.05,2.28,1.69,2.16,1.77,1.63,2.24,1.91,2,2.17,1.81,2.37,1.51,2.62,1.12,2.49,1.37,2.4,1.51,2.42,1.48,2.47,1.36,2.67,1.04,2.72.92,2.75.83,2.61,1.17,2.6,1.28,2.73.57,2.89-.48,2.88-.18,2.88-.12,2.82.61.13.02,2.68.58,2.8.67,2.74.87,2.6,1.17,2.55,1.26,2.56,1.25,2.57,1.23,2.49,1.36,2.44,1.45,2.31,1.61,2.31,1.62,2.43,1.44,2.41,1.5,2.37,1.54,2.41,1.49,2.49,1.37,2.56,1.26,2.62,1.16,2.67,1.02,2.76.84,2.83.52,2.88.02,2.9-.15,2.88-.12,2.89.09,2.88-.04,2.89-.18,2.88-.06,2.89.12,2.83.54,2.75.84,2.85.41,2.89.24,2.89.09,2.88-.13,2.89-.2,2.88-.24,2.86-.38,2.87-.4,2.88-.04,2.87.37,2.82.61,2.61,1.12,2.55,1.29,2.55,1.29,2.56,1.25,2.6,1.22,2.66,1.07,2.81.55,2.88.31,2.9.12,2.89-.04,2.86-.37,2.86-.51,2.85-.48.87-.22"/>
  </g>
</svg>